<svg xmlns="http://www.w3.org/2000/svg" version="1.1" xmlns:xlink="http://www.w3.org/1999/xlink" xmlns:svgjs="http://svgjs.com/svgjs" width="1440" height="900" preserveAspectRatio="none" viewBox="0 0 1440 900"><g mask="url(&quot;#SvgjsMask1032&quot;)" fill="none"><rect width="1440" height="900" x="0" y="0" fill="#0e2a47"></rect><path d="M-99.71 553.58L-99.71 553.58" stroke="#132e65" stroke-width="1.5"></path><path d="M-99.71 553.58L-78.29 656.71" stroke="#132e65" stroke-width="1.5"></path><path d="M-99.71 553.58L105.34 667.57" stroke="#132e65" stroke-width="1.5"></path><path d="M-99.71 553.58L-56.95 804.27" stroke="#132e65" stroke-width="1.5"></path><path d="M-78.29 656.71L-78.29 656.71" stroke="#132e65" stroke-width="1.5"></path><path d="M-78.29 656.71L-56.95 804.27" stroke="#132e65" stroke-width="1.5"></path><path d="M-78.29 656.71L105.34 667.57" stroke="#132e65" stroke-width="1.5"></path><path d="M-78.29 656.71L107.2 806.29" stroke="#132e65" stroke-width="1.5"></path><path d="M-56.95 804.27L-56.95 804.27" stroke="#132e65" stroke-width="1.5"></path><path d="M-56.95 804.27L-65.3 950.97" stroke="#132e65" stroke-width="1.5"></path><path d="M-56.95 804.27L107.2 806.29" stroke="#132e65" stroke-width="1.5"></path><path d="M-56.95 804.27L105.34 667.57" stroke="#132e65" stroke-width="1.5"></path><path d="M-65.3 950.97L-65.3 950.97" stroke="#132e65" stroke-width="1.5"></path><path d="M-65.3 950.97L72.94 993.44" stroke="#132e65" stroke-width="1.5"></path><path d="M-65.3 950.97L107.2 806.29" stroke="#132e65" stroke-width="1.5"></path><path d="M-65.3 950.97L-78.29 656.71" stroke="#132e65" stroke-width="1.5"></path><path d="M-65.3 950.97L247.12 990.51" stroke="#132e65" stroke-width="1.5"></path><path d="M105.34 667.57L105.34 667.57" stroke="#132e65" stroke-width="1.5"></path><path d="M105.34 667.57L107.2 806.29" stroke="#132e65" stroke-width="1.5"></path><path d="M105.34 667.57L197.39 551.06" stroke="#132e65" stroke-width="1.5"></path><path d="M105.34 667.57L261.36 797.62" stroke="#132e65" stroke-width="1.5"></path><path d="M107.2 806.29L107.2 806.29" stroke="#132e65" stroke-width="1.5"></path><path d="M107.2 806.29L261.36 797.62" stroke="#132e65" stroke-width="1.5"></path><path d="M107.2 806.29L72.94 993.44" stroke="#132e65" stroke-width="1.5"></path><path d="M72.94 993.44L72.94 993.44" stroke="#132e65" stroke-width="1.5"></path><path d="M72.94 993.44L247.12 990.51" stroke="#132e65" stroke-width="1.5"></path><path d="M72.94 993.44L-56.95 804.27" stroke="#132e65" stroke-width="1.5"></path><path d="M197.39 551.06L197.39 551.06" stroke="#132e65" stroke-width="1.5"></path><path d="M197.39 551.06L345.52 520.77" stroke="#132e65" stroke-width="1.5"></path><path d="M261.36 797.62L261.36 797.62" stroke="#132e65" stroke-width="1.5"></path><path d="M261.36 797.62L376.37 826.97" stroke="#132e65" stroke-width="1.5"></path><path d="M261.36 797.62L359.2 644.86" stroke="#132e65" stroke-width="1.5"></path><path d="M261.36 797.62L247.12 990.51" stroke="#132e65" stroke-width="1.5"></path><path d="M261.36 797.62L355.25 987.53" stroke="#132e65" stroke-width="1.5"></path><path d="M247.12 990.51L247.12 990.51" stroke="#132e65" stroke-width="1.5"></path><path d="M247.12 990.51L355.25 987.53" stroke="#132e65" stroke-width="1.5"></path><path d="M345.52 520.77L345.52 520.77" stroke="#132e65" stroke-width="1.5"></path><path d="M345.52 520.77L359.2 644.86" stroke="#132e65" stroke-width="1.5"></path><path d="M345.52 520.77L535.74 504.99" stroke="#132e65" stroke-width="1.5"></path><path d="M345.52 520.77L498.68 689.32" stroke="#132e65" stroke-width="1.5"></path><path d="M345.52 520.77L105.34 667.57" stroke="#132e65" stroke-width="1.5"></path><path d="M359.2 644.86L359.2 644.86" stroke="#132e65" stroke-width="1.5"></path><path d="M359.2 644.86L498.68 689.32" stroke="#132e65" stroke-width="1.5"></path><path d="M376.37 826.97L376.37 826.97" stroke="#132e65" stroke-width="1.5"></path><path d="M376.37 826.97L500.62 857.89" stroke="#132e65" stroke-width="1.5"></path><path d="M376.37 826.97L355.25 987.53" stroke="#132e65" stroke-width="1.5"></path><path d="M376.37 826.97L359.2 644.86" stroke="#132e65" stroke-width="1.5"></path><path d="M376.37 826.97L498.68 689.32" stroke="#132e65" stroke-width="1.5"></path><path d="M355.25 987.53L355.25 987.53" stroke="#132e65" stroke-width="1.5"></path><path d="M355.25 987.53L496.59 1003.45" stroke="#132e65" stroke-width="1.5"></path><path d="M535.74 504.99L535.74 504.99" stroke="#132e65" stroke-width="1.5"></path><path d="M535.74 504.99L650.61 540.16" stroke="#132e65" stroke-width="1.5"></path><path d="M535.74 504.99L638.59 372.15" stroke="#132e65" stroke-width="1.5"></path><path d="M535.74 504.99L498.68 689.32" stroke="#132e65" stroke-width="1.5"></path><path d="M498.68 689.32L498.68 689.32" stroke="#132e65" stroke-width="1.5"></path><path d="M498.68 689.32L500.62 857.89" stroke="#132e65" stroke-width="1.5"></path><path d="M498.68 689.32L678.83 642.89" stroke="#132e65" stroke-width="1.5"></path><path d="M498.68 689.32L650.61 540.16" stroke="#132e65" stroke-width="1.5"></path><path d="M500.62 857.89L500.62 857.89" stroke="#132e65" stroke-width="1.5"></path><path d="M500.62 857.89L496.59 1003.45" stroke="#132e65" stroke-width="1.5"></path><path d="M500.62 857.89L355.25 987.53" stroke="#132e65" stroke-width="1.5"></path><path d="M500.62 857.89L707.62 826.32" stroke="#132e65" stroke-width="1.5"></path><path d="M496.59 1003.45L496.59 1003.45" stroke="#132e65" stroke-width="1.5"></path><path d="M496.59 1003.45L696.9 948.47" stroke="#132e65" stroke-width="1.5"></path><path d="M496.59 1003.45L376.37 826.97" stroke="#132e65" stroke-width="1.5"></path><path d="M638.59 372.15L638.59 372.15" stroke="#132e65" stroke-width="1.5"></path><path d="M638.59 372.15L650.61 540.16" stroke="#132e65" stroke-width="1.5"></path><path d="M638.59 372.15L808.28 498.71" stroke="#132e65" stroke-width="1.5"></path><path d="M638.59 372.15L854.79 352.78" stroke="#132e65" stroke-width="1.5"></path><path d="M638.59 372.15L837.27 226.44" stroke="#132e65" stroke-width="1.5"></path><path d="M650.61 540.16L650.61 540.16" stroke="#132e65" stroke-width="1.5"></path><path d="M650.61 540.16L678.83 642.89" stroke="#132e65" stroke-width="1.5"></path><path d="M650.61 540.16L808.28 498.71" stroke="#132e65" stroke-width="1.5"></path><path d="M650.61 540.16L820.75 670.17" stroke="#132e65" stroke-width="1.5"></path><path d="M678.83 642.89L678.83 642.89" stroke="#132e65" stroke-width="1.5"></path><path d="M678.83 642.89L820.75 670.17" stroke="#132e65" stroke-width="1.5"></path><path d="M678.83 642.89L707.62 826.32" stroke="#132e65" stroke-width="1.5"></path><path d="M678.83 642.89L808.28 498.71" stroke="#132e65" stroke-width="1.5"></path><path d="M678.83 642.89L535.74 504.99" stroke="#132e65" stroke-width="1.5"></path><path d="M707.62 826.32L707.62 826.32" stroke="#132e65" stroke-width="1.5"></path><path d="M707.62 826.32L791.79 835.65" stroke="#132e65" stroke-width="1.5"></path><path d="M707.62 826.32L696.9 948.47" stroke="#132e65" stroke-width="1.5"></path><path d="M696.9 948.47L696.9 948.47" stroke="#132e65" stroke-width="1.5"></path><path d="M696.9 948.47L791.79 835.65" stroke="#132e65" stroke-width="1.5"></path><path d="M696.9 948.47L862.28 981.04" stroke="#132e65" stroke-width="1.5"></path><path d="M850.15 97.75L850.15 97.75" stroke="#132e65" stroke-width="1.5"></path><path d="M850.15 97.75L837.27 226.44" stroke="#132e65" stroke-width="1.5"></path><path d="M850.15 97.75L1000.03 -103.21" stroke="#132e65" stroke-width="1.5"></path><path d="M850.15 97.75L854.79 352.78" stroke="#132e65" stroke-width="1.5"></path><path d="M850.15 97.75L1094.28 189.73" stroke="#132e65" stroke-width="1.5"></path><path d="M850.15 97.75L1111.53 -43.94" stroke="#132e65" stroke-width="1.5"></path><path d="M850.15 97.75L1160.41 89.62" stroke="#132e65" stroke-width="1.5"></path><path d="M837.27 226.44L837.27 226.44" stroke="#132e65" stroke-width="1.5"></path><path d="M837.27 226.44L854.79 352.78" stroke="#132e65" stroke-width="1.5"></path><path d="M837.27 226.44L985.97 388.99" stroke="#132e65" stroke-width="1.5"></path><path d="M837.27 226.44L1094.28 189.73" stroke="#132e65" stroke-width="1.5"></path><path d="M854.79 352.78L854.79 352.78" stroke="#132e65" stroke-width="1.5"></path><path d="M854.79 352.78L985.97 388.99" stroke="#132e65" stroke-width="1.5"></path><path d="M854.79 352.78L808.28 498.71" stroke="#132e65" stroke-width="1.5"></path><path d="M854.79 352.78L950.78 526.98" stroke="#132e65" stroke-width="1.5"></path><path d="M808.28 498.71L808.28 498.71" stroke="#132e65" stroke-width="1.5"></path><path d="M808.28 498.71L950.78 526.98" stroke="#132e65" stroke-width="1.5"></path><path d="M820.75 670.17L820.75 670.17" stroke="#132e65" stroke-width="1.5"></path><path d="M820.75 670.17L973.47 668.45" stroke="#132e65" stroke-width="1.5"></path><path d="M791.79 835.65L791.79 835.65" stroke="#132e65" stroke-width="1.5"></path><path d="M791.79 835.65L862.28 981.04" stroke="#132e65" stroke-width="1.5"></path><path d="M791.79 835.65L820.75 670.17" stroke="#132e65" stroke-width="1.5"></path><path d="M791.79 835.65L1007.22 816.93" stroke="#132e65" stroke-width="1.5"></path><path d="M791.79 835.65L678.83 642.89" stroke="#132e65" stroke-width="1.5"></path><path d="M862.28 981.04L862.28 981.04" stroke="#132e65" stroke-width="1.5"></path><path d="M862.28 981.04L999.91 985.3" stroke="#132e65" stroke-width="1.5"></path><path d="M1000.03 -103.21L1000.03 -103.21" stroke="#132e65" stroke-width="1.5"></path><path d="M1000.03 -103.21L1111.53 -43.94" stroke="#132e65" stroke-width="1.5"></path><path d="M1000.03 -103.21L1160.41 89.62" stroke="#132e65" stroke-width="1.5"></path><path d="M1000.03 -103.21L1285.44 -86.15" stroke="#132e65" stroke-width="1.5"></path><path d="M1000.03 -103.21L1094.28 189.73" stroke="#132e65" stroke-width="1.5"></path><path d="M1000.03 -103.21L1303.96 97.56" stroke="#132e65" stroke-width="1.5"></path><path d="M985.97 388.99L985.97 388.99" stroke="#132e65" stroke-width="1.5"></path><path d="M950.78 526.98L950.78 526.98" stroke="#132e65" stroke-width="1.5"></path><path d="M950.78 526.98L985.97 388.99" stroke="#132e65" stroke-width="1.5"></path><path d="M950.78 526.98L973.47 668.45" stroke="#132e65" stroke-width="1.5"></path><path d="M950.78 526.98L1109.85 498.64" stroke="#132e65" stroke-width="1.5"></path><path d="M950.78 526.98L820.75 670.17" stroke="#132e65" stroke-width="1.5"></path><path d="M973.47 668.45L973.47 668.45" stroke="#132e65" stroke-width="1.5"></path><path d="M973.47 668.45L1007.22 816.93" stroke="#132e65" stroke-width="1.5"></path><path d="M973.47 668.45L1161.65 640.93" stroke="#132e65" stroke-width="1.5"></path><path d="M973.47 668.45L1109.85 498.64" stroke="#132e65" stroke-width="1.5"></path><path d="M973.47 668.45L1106.71 854.92" stroke="#132e65" stroke-width="1.5"></path><path d="M1007.22 816.93L1007.22 816.93" stroke="#132e65" stroke-width="1.5"></path><path d="M1007.22 816.93L1106.71 854.92" stroke="#132e65" stroke-width="1.5"></path><path d="M999.91 985.3L999.91 985.3" stroke="#132e65" stroke-width="1.5"></path><path d="M999.91 985.3L1145.75 973.44" stroke="#132e65" stroke-width="1.5"></path><path d="M999.91 985.3L1007.22 816.93" stroke="#132e65" stroke-width="1.5"></path><path d="M999.91 985.3L1106.71 854.92" stroke="#132e65" stroke-width="1.5"></path><path d="M1111.53 -43.94L1111.53 -43.94" stroke="#132e65" stroke-width="1.5"></path><path d="M1111.53 -43.94L1160.41 89.62" stroke="#132e65" stroke-width="1.5"></path><path d="M1160.41 89.62L1160.41 89.62" stroke="#132e65" stroke-width="1.5"></path><path d="M1160.41 89.62L1094.28 189.73" stroke="#132e65" stroke-width="1.5"></path><path d="M1160.41 89.62L1303.96 97.56" stroke="#132e65" stroke-width="1.5"></path><path d="M1160.41 89.62L1258.51 210.67" stroke="#132e65" stroke-width="1.5"></path><path d="M1160.41 89.62L1285.44 -86.15" stroke="#132e65" stroke-width="1.5"></path><path d="M1094.28 189.73L1094.28 189.73" stroke="#132e65" stroke-width="1.5"></path><path d="M1094.28 189.73L1258.51 210.67" stroke="#132e65" stroke-width="1.5"></path><path d="M1094.28 189.73L1145.37 393.77" stroke="#132e65" stroke-width="1.5"></path><path d="M1094.28 189.73L1239.61 344.11" stroke="#132e65" stroke-width="1.5"></path><path d="M1145.37 393.77L1145.37 393.77" stroke="#132e65" stroke-width="1.5"></path><path d="M1145.37 393.77L1239.61 344.11" stroke="#132e65" stroke-width="1.5"></path><path d="M1145.37 393.77L1109.85 498.64" stroke="#132e65" stroke-width="1.5"></path><path d="M1145.37 393.77L985.97 388.99" stroke="#132e65" stroke-width="1.5"></path><path d="M1145.37 393.77L1300.85 534.86" stroke="#132e65" stroke-width="1.5"></path><path d="M1109.85 498.64L1109.85 498.64" stroke="#132e65" stroke-width="1.5"></path><path d="M1161.65 640.93L1161.65 640.93" stroke="#132e65" stroke-width="1.5"></path><path d="M1161.65 640.93L1255.44 705.42" stroke="#132e65" stroke-width="1.5"></path><path d="M1161.65 640.93L1109.85 498.64" stroke="#132e65" stroke-width="1.5"></path><path d="M1161.65 640.93L1300.85 534.86" stroke="#132e65" stroke-width="1.5"></path><path d="M1161.65 640.93L1106.71 854.92" stroke="#132e65" stroke-width="1.5"></path><path d="M1161.65 640.93L1303.58 810.75" stroke="#132e65" stroke-width="1.5"></path><path d="M1106.71 854.92L1106.71 854.92" stroke="#132e65" stroke-width="1.5"></path><path d="M1106.71 854.92L1145.75 973.44" stroke="#132e65" stroke-width="1.5"></path><path d="M1145.75 973.44L1145.75 973.44" stroke="#132e65" stroke-width="1.5"></path><path d="M1145.75 973.44L1286.55 944.57" stroke="#132e65" stroke-width="1.5"></path><path d="M1145.75 973.44L1007.22 816.93" stroke="#132e65" stroke-width="1.5"></path><path d="M1145.75 973.44L1303.58 810.75" stroke="#132e65" stroke-width="1.5"></path><path d="M1145.75 973.44L862.28 981.04" stroke="#132e65" stroke-width="1.5"></path><path d="M1285.44 -86.15L1285.44 -86.15" stroke="#132e65" stroke-width="1.5"></path><path d="M1285.44 -86.15L1401.66 -46.43" stroke="#132e65" stroke-width="1.5"></path><path d="M1285.44 -86.15L1111.53 -43.94" stroke="#132e65" stroke-width="1.5"></path><path d="M1285.44 -86.15L1303.96 97.56" stroke="#132e65" stroke-width="1.5"></path><path d="M1303.96 97.56L1303.96 97.56" stroke="#132e65" stroke-width="1.5"></path><path d="M1303.96 97.56L1258.51 210.67" stroke="#132e65" stroke-width="1.5"></path><path d="M1303.96 97.56L1427.86 105.57" stroke="#132e65" stroke-width="1.5"></path><path d="M1303.96 97.56L1401.66 -46.43" stroke="#132e65" stroke-width="1.5"></path><path d="M1258.51 210.67L1258.51 210.67" stroke="#132e65" stroke-width="1.5"></path><path d="M1258.51 210.67L1239.61 344.11" stroke="#132e65" stroke-width="1.5"></path><path d="M1239.61 344.11L1239.61 344.11" stroke="#132e65" stroke-width="1.5"></path><path d="M1300.85 534.86L1300.85 534.86" stroke="#132e65" stroke-width="1.5"></path><path d="M1300.85 534.86L1456.2 509.21" stroke="#132e65" stroke-width="1.5"></path><path d="M1300.85 534.86L1255.44 705.42" stroke="#132e65" stroke-width="1.5"></path><path d="M1300.85 534.86L1417.09 398.59" stroke="#132e65" stroke-width="1.5"></path><path d="M1300.85 534.86L1109.85 498.64" stroke="#132e65" stroke-width="1.5"></path><path d="M1300.85 534.86L1452.95 662.6" stroke="#132e65" stroke-width="1.5"></path><path d="M1255.44 705.42L1255.44 705.42" stroke="#132e65" stroke-width="1.5"></path><path d="M1255.44 705.42L1303.58 810.75" stroke="#132e65" stroke-width="1.5"></path><path d="M1255.44 705.42L1402.28 792.47" stroke="#132e65" stroke-width="1.5"></path><path d="M1303.58 810.75L1303.58 810.75" stroke="#132e65" stroke-width="1.5"></path><path d="M1303.58 810.75L1402.28 792.47" stroke="#132e65" stroke-width="1.5"></path><path d="M1303.58 810.75L1286.55 944.57" stroke="#132e65" stroke-width="1.5"></path><path d="M1303.58 810.75L1106.71 854.92" stroke="#132e65" stroke-width="1.5"></path><path d="M1303.58 810.75L1432.44 974.88" stroke="#132e65" stroke-width="1.5"></path><path d="M1303.58 810.75L1452.95 662.6" stroke="#132e65" stroke-width="1.5"></path><path d="M1286.55 944.57L1286.55 944.57" stroke="#132e65" stroke-width="1.5"></path><path d="M1286.55 944.57L1432.44 974.88" stroke="#132e65" stroke-width="1.5"></path><path d="M1401.66 -46.43L1401.66 -46.43" stroke="#132e65" stroke-width="1.5"></path><path d="M1401.66 -46.43L1427.86 105.57" stroke="#132e65" stroke-width="1.5"></path><path d="M1401.66 -46.43L1583.73 -63.48" stroke="#132e65" stroke-width="1.5"></path><path d="M1427.86 105.57L1427.86 105.57" stroke="#132e65" stroke-width="1.5"></path><path d="M1427.86 105.57L1455.49 218.67" stroke="#132e65" stroke-width="1.5"></path><path d="M1455.49 218.67L1455.49 218.67" stroke="#132e65" stroke-width="1.5"></path><path d="M1455.49 218.67L1573.45 190.94" stroke="#132e65" stroke-width="1.5"></path><path d="M1455.49 218.67L1417.09 398.59" stroke="#132e65" stroke-width="1.5"></path><path d="M1455.49 218.67L1303.96 97.56" stroke="#132e65" stroke-width="1.5"></path><path d="M1455.49 218.67L1554.62 387.58" stroke="#132e65" stroke-width="1.5"></path><path d="M1417.09 398.59L1417.09 398.59" stroke="#132e65" stroke-width="1.5"></path><path d="M1417.09 398.59L1456.2 509.21" stroke="#132e65" stroke-width="1.5"></path><path d="M1417.09 398.59L1554.62 387.58" stroke="#132e65" stroke-width="1.5"></path><path d="M1417.09 398.59L1239.61 344.11" stroke="#132e65" stroke-width="1.5"></path><path d="M1456.2 509.21L1456.2 509.21" stroke="#132e65" stroke-width="1.5"></path><path d="M1456.2 509.21L1606.74 493.4" stroke="#132e65" stroke-width="1.5"></path><path d="M1456.2 509.21L1452.95 662.6" stroke="#132e65" stroke-width="1.5"></path><path d="M1456.2 509.21L1554.62 387.58" stroke="#132e65" stroke-width="1.5"></path><path d="M1452.95 662.6L1452.95 662.6" stroke="#132e65" stroke-width="1.5"></path><path d="M1452.95 662.6L1542.61 666.57" stroke="#132e65" stroke-width="1.5"></path><path d="M1452.95 662.6L1402.28 792.47" stroke="#132e65" stroke-width="1.5"></path><path d="M1402.28 792.47L1402.28 792.47" stroke="#132e65" stroke-width="1.5"></path><path d="M1402.28 792.47L1561.88 822.81" stroke="#132e65" stroke-width="1.5"></path><path d="M1402.28 792.47L1432.44 974.88" stroke="#132e65" stroke-width="1.5"></path><path d="M1402.28 792.47L1542.61 666.57" stroke="#132e65" stroke-width="1.5"></path><path d="M1432.44 974.88L1432.44 974.88" stroke="#132e65" stroke-width="1.5"></path><path d="M1432.44 974.88L1588.84 973.18" stroke="#132e65" stroke-width="1.5"></path><path d="M1583.73 -63.48L1583.73 -63.48" stroke="#132e65" stroke-width="1.5"></path><path d="M1583.73 -63.48L1427.86 105.57" stroke="#132e65" stroke-width="1.5"></path><path d="M1583.73 -63.48L1573.45 190.94" stroke="#132e65" stroke-width="1.5"></path><path d="M1583.73 -63.48L1285.44 -86.15" stroke="#132e65" stroke-width="1.5"></path><path d="M1583.73 -63.48L1455.49 218.67" stroke="#132e65" stroke-width="1.5"></path><path d="M1583.73 -63.48L1303.96 97.56" stroke="#132e65" stroke-width="1.5"></path><path d="M1573.45 190.94L1573.45 190.94" stroke="#132e65" stroke-width="1.5"></path><path d="M1573.45 190.94L1427.86 105.57" stroke="#132e65" stroke-width="1.5"></path><path d="M1573.45 190.94L1554.62 387.58" stroke="#132e65" stroke-width="1.5"></path><path d="M1554.62 387.58L1554.62 387.58" stroke="#132e65" stroke-width="1.5"></path><path d="M1554.62 387.58L1606.74 493.4" stroke="#132e65" stroke-width="1.5"></path><path d="M1606.74 493.4L1606.74 493.4" stroke="#132e65" stroke-width="1.5"></path><path d="M1606.74 493.4L1542.61 666.57" stroke="#132e65" stroke-width="1.5"></path><path d="M1606.74 493.4L1417.09 398.59" stroke="#132e65" stroke-width="1.5"></path><path d="M1542.61 666.57L1542.61 666.57" stroke="#132e65" stroke-width="1.5"></path><path d="M1542.61 666.57L1561.88 822.81" stroke="#132e65" stroke-width="1.5"></path><path d="M1542.61 666.57L1456.2 509.21" stroke="#132e65" stroke-width="1.5"></path><path d="M1561.88 822.81L1561.88 822.81" stroke="#132e65" stroke-width="1.5"></path><path d="M1561.88 822.81L1588.84 973.18" stroke="#132e65" stroke-width="1.5"></path><path d="M1561.88 822.81L1452.95 662.6" stroke="#132e65" stroke-width="1.5"></path><path d="M1588.84 973.18L1588.84 973.18" stroke="#132e65" stroke-width="1.5"></path><circle r="5" cx="-99.71" cy="553.58" fill="#132e65"></circle><circle r="5" cx="-78.29" cy="656.71" fill="#132e65"></circle><circle r="5" cx="-56.95" cy="804.27" fill="#132e65"></circle><circle r="5" cx="-65.3" cy="950.97" fill="#132e65"></circle><circle r="5" cx="105.34" cy="667.57" fill="#132e65"></circle><circle r="5" cx="107.2" cy="806.29" fill="#132e65"></circle><circle r="5" cx="72.94" cy="993.44" fill="#132e65"></circle><circle r="5" cx="197.39" cy="551.06" fill="#132e65"></circle><circle r="5" cx="261.36" cy="797.62" fill="#132e65"></circle><circle r="5" cx="247.12" cy="990.51" fill="#132e65"></circle><circle r="5" cx="345.52" cy="520.77" fill="#132e65"></circle><circle r="5" cx="359.2" cy="644.86" fill="#132e65"></circle><circle r="5" cx="376.37" cy="826.97" fill="#132e65"></circle><circle r="5" cx="355.25" cy="987.53" fill="#132e65"></circle><circle r="5" cx="535.74" cy="504.99" fill="#132e65"></circle><circle r="5" cx="498.68" cy="689.32" fill="#132e65"></circle><circle r="5" cx="500.62" cy="857.89" fill="#132e65"></circle><circle r="5" cx="496.59" cy="1003.45" fill="#132e65"></circle><circle r="5" cx="638.59" cy="372.15" fill="#132e65"></circle><circle r="5" cx="650.61" cy="540.16" fill="#132e65"></circle><circle r="5" cx="678.83" cy="642.89" fill="#132e65"></circle><circle r="5" cx="707.62" cy="826.32" fill="#132e65"></circle><circle r="5" cx="696.9" cy="948.47" fill="#132e65"></circle><circle r="5" cx="850.15" cy="97.75" fill="#132e65"></circle><circle r="5" cx="837.27" cy="226.44" fill="#132e65"></circle><circle r="5" cx="854.79" cy="352.78" fill="#132e65"></circle><circle r="5" cx="808.28" cy="498.71" fill="#132e65"></circle><circle r="5" cx="820.75" cy="670.17" fill="#132e65"></circle><circle r="5" cx="791.79" cy="835.65" fill="#132e65"></circle><circle r="5" cx="862.28" cy="981.04" fill="#132e65"></circle><circle r="5" cx="1000.03" cy="-103.21" fill="#132e65"></circle><circle r="5" cx="985.97" cy="388.99" fill="#132e65"></circle><circle r="5" cx="950.78" cy="526.98" fill="#132e65"></circle><circle r="5" cx="973.47" cy="668.45" fill="#132e65"></circle><circle r="5" cx="1007.22" cy="816.93" fill="#132e65"></circle><circle r="5" cx="999.91" cy="985.3" fill="#132e65"></circle><circle r="5" cx="1111.53" cy="-43.94" fill="#132e65"></circle><circle r="5" cx="1160.41" cy="89.62" fill="#132e65"></circle><circle r="5" cx="1094.28" cy="189.73" fill="#132e65"></circle><circle r="5" cx="1145.37" cy="393.77" fill="#132e65"></circle><circle r="5" cx="1109.85" cy="498.64" fill="#132e65"></circle><circle r="5" cx="1161.65" cy="640.93" fill="#132e65"></circle><circle r="5" cx="1106.71" cy="854.92" fill="#132e65"></circle><circle r="5" cx="1145.75" cy="973.44" fill="#132e65"></circle><circle r="5" cx="1285.44" cy="-86.15" fill="#132e65"></circle><circle r="5" cx="1303.96" cy="97.56" fill="#132e65"></circle><circle r="5" cx="1258.51" cy="210.67" fill="#132e65"></circle><circle r="5" cx="1239.61" cy="344.11" fill="#132e65"></circle><circle r="5" cx="1300.85" cy="534.86" fill="#132e65"></circle><circle r="5" cx="1255.44" cy="705.42" fill="#132e65"></circle><circle r="5" cx="1303.58" cy="810.75" fill="#132e65"></circle><circle r="5" cx="1286.55" cy="944.57" fill="#132e65"></circle><circle r="5" cx="1401.66" cy="-46.43" fill="#132e65"></circle><circle r="5" cx="1427.86" cy="105.57" fill="#132e65"></circle><circle r="5" cx="1455.49" cy="218.67" fill="#132e65"></circle><circle r="5" cx="1417.09" cy="398.59" fill="#132e65"></circle><circle r="5" cx="1456.2" cy="509.21" fill="#132e65"></circle><circle r="5" cx="1452.95" cy="662.6" fill="#132e65"></circle><circle r="5" cx="1402.28" cy="792.47" fill="#132e65"></circle><circle r="5" cx="1432.44" cy="974.88" fill="#132e65"></circle><circle r="5" cx="1583.73" cy="-63.48" fill="#132e65"></circle><circle r="5" cx="1573.45" cy="190.94" fill="#132e65"></circle><circle r="5" cx="1554.62" cy="387.58" fill="#132e65"></circle><circle r="5" cx="1606.74" cy="493.4" fill="#132e65"></circle><circle r="5" cx="1542.61" cy="666.57" fill="#132e65"></circle><circle r="5" cx="1561.88" cy="822.81" fill="#132e65"></circle><circle r="5" cx="1588.84" cy="973.18" fill="#132e65"></circle><path d="M41.14 795.37L41.14 795.37" stroke="hsl(228.5, 77.2%, 51.5%)" stroke-width="1.5"></path><path d="M41.14 795.37L-57.13 804.22" stroke="hsl(228.5, 77.2%, 51.5%)" stroke-width="1.5"></path><path d="M41.14 795.37L110.34 942.45" stroke="hsl(228.5, 77.2%, 51.5%)" stroke-width="1.5"></path><path d="M364.22 962.05L364.22 962.05" stroke="hsl(228.5, 77.2%, 51.5%)" stroke-width="1.5"></path><path d="M364.22 962.05L357.14 823.46" stroke="hsl(228.5, 77.2%, 51.5%)" stroke-width="1.5"></path><path d="M364.22 962.05L211.25 976.96" stroke="hsl(228.5, 77.2%, 51.5%)" stroke-width="1.5"></path><path d="M364.22 962.05L519.68 989.91" stroke="hsl(228.5, 77.2%, 51.5%)" stroke-width="1.5"></path><path d="M364.22 962.05L488.51 846.2" stroke="hsl(228.5, 77.2%, 51.5%)" stroke-width="1.5"></path><path d="M519.69 652.57L519.69 652.57" stroke="hsl(228.5, 77.2%, 51.5%)" stroke-width="1.5"></path><path d="M519.69 652.57L687.27 670.57" stroke="hsl(228.5, 77.2%, 51.5%)" stroke-width="1.5"></path><path d="M519.69 652.57L488.51 846.2" stroke="hsl(228.5, 77.2%, 51.5%)" stroke-width="1.5"></path><path d="M519.69 652.57L357.14 823.46" stroke="hsl(228.5, 77.2%, 51.5%)" stroke-width="1.5"></path><path d="M519.69 652.57L699.55 817.9" stroke="hsl(228.5, 77.2%, 51.5%)" stroke-width="1.5"></path><path d="M519.69 652.57L519.68 989.91" stroke="hsl(228.5, 77.2%, 51.5%)" stroke-width="1.5"></path><path d="M488.51 846.2L488.51 846.2" stroke="hsl(228.5, 77.2%, 51.5%)" stroke-width="1.5"></path><path d="M488.51 846.2L357.14 823.46" stroke="hsl(228.5, 77.2%, 51.5%)" stroke-width="1.5"></path><path d="M488.51 846.2L519.68 989.91" stroke="hsl(228.5, 77.2%, 51.5%)" stroke-width="1.5"></path><path d="M838.07 821.19L838.07 821.19" stroke="hsl(228.5, 77.2%, 51.5%)" stroke-width="1.5"></path><path d="M838.07 821.19L699.55 817.9" stroke="hsl(228.5, 77.2%, 51.5%)" stroke-width="1.5"></path><path d="M838.07 821.19L857.19 668.86" stroke="hsl(228.5, 77.2%, 51.5%)" stroke-width="1.5"></path><path d="M838.07 821.19L1003.16 809" stroke="hsl(228.5, 77.2%, 51.5%)" stroke-width="1.5"></path><path d="M1105.57 401.17L1105.57 401.17" stroke="hsl(228.5, 77.2%, 51.5%)" stroke-width="1.5"></path><path d="M1105.57 401.17L1150.37 499.21" stroke="hsl(228.5, 77.2%, 51.5%)" stroke-width="1.5"></path><path d="M1105.57 401.17L1248.85 396.36" stroke="hsl(228.5, 77.2%, 51.5%)" stroke-width="1.5"></path><path d="M1105.57 401.17L1244.9 525.63" stroke="hsl(228.5, 77.2%, 51.5%)" stroke-width="1.5"></path><path d="M1105.57 401.17L1127.78 681.7" stroke="hsl(228.5, 77.2%, 51.5%)" stroke-width="1.5"></path><path d="M1088.85 797.4L1088.85 797.4" stroke="hsl(228.5, 77.2%, 51.5%)" stroke-width="1.5"></path><path d="M1088.85 797.4L1003.16 809" stroke="hsl(228.5, 77.2%, 51.5%)" stroke-width="1.5"></path><path d="M1241.34 -65.74L1241.34 -65.74" stroke="hsl(228.5, 77.2%, 51.5%)" stroke-width="1.5"></path><path d="M1241.34 -65.74L1405.53 -79.88" stroke="hsl(228.5, 77.2%, 51.5%)" stroke-width="1.5"></path><path d="M1241.34 -65.74L1308.52 109.51" stroke="hsl(228.5, 77.2%, 51.5%)" stroke-width="1.5"></path><path d="M1241.34 -65.74L1433.74 71.82" stroke="hsl(228.5, 77.2%, 51.5%)" stroke-width="1.5"></path><path d="M1308.52 109.51L1308.52 109.51" stroke="hsl(228.5, 77.2%, 51.5%)" stroke-width="1.5"></path><path d="M1308.52 109.51L1433.74 71.82" stroke="hsl(228.5, 77.2%, 51.5%)" stroke-width="1.5"></path><path d="M1308.52 109.51L1398.25 216.15" stroke="hsl(228.5, 77.2%, 51.5%)" stroke-width="1.5"></path><path d="M1308.52 109.51L1405.53 -79.88" stroke="hsl(228.5, 77.2%, 51.5%)" stroke-width="1.5"></path><path d="M1308.52 109.51L1593.55 43.95" stroke="hsl(228.5, 77.2%, 51.5%)" stroke-width="1.5"></path><path d="M1308.52 109.51L1248.85 396.36" stroke="hsl(228.5, 77.2%, 51.5%)" stroke-width="1.5"></path><path d="M1398.25 216.15L1398.25 216.15" stroke="hsl(228.5, 77.2%, 51.5%)" stroke-width="1.5"></path><path d="M1398.25 216.15L1433.74 71.82" stroke="hsl(228.5, 77.2%, 51.5%)" stroke-width="1.5"></path><path d="M1416.91 965.24L1416.91 965.24" stroke="hsl(228.5, 77.2%, 51.5%)" stroke-width="1.5"></path><path d="M1416.91 965.24L1285.85 940.6" stroke="hsl(228.5, 77.2%, 51.5%)" stroke-width="1.5"></path><path d="M1416.91 965.24L1579.3 1007.19" stroke="hsl(228.5, 77.2%, 51.5%)" stroke-width="1.5"></path><path d="M1416.91 965.24L1443.79 793.97" stroke="hsl(228.5, 77.2%, 51.5%)" stroke-width="1.5"></path><path d="M1416.91 965.24L1595.94 845.77" stroke="hsl(228.5, 77.2%, 51.5%)" stroke-width="1.5"></path><path d="M1583.33 371.35L1583.33 371.35" stroke="hsl(228.5, 77.2%, 51.5%)" stroke-width="1.5"></path><path d="M1583.33 371.35L1585.25 249.24" stroke="hsl(228.5, 77.2%, 51.5%)" stroke-width="1.5"></path><path d="M1583.33 371.35L1438.04 412.4" stroke="hsl(228.5, 77.2%, 51.5%)" stroke-width="1.5"></path><path d="M1595.94 845.77L1595.94 845.77" stroke="hsl(228.5, 77.2%, 51.5%)" stroke-width="1.5"></path><path d="M1595.94 845.77L1443.79 793.97" stroke="hsl(228.5, 77.2%, 51.5%)" stroke-width="1.5"></path><path d="M1595.94 845.77L1579.3 1007.19" stroke="hsl(228.5, 77.2%, 51.5%)" stroke-width="1.5"></path><path d="M1595.94 845.77L1558.91 668.25" stroke="hsl(228.5, 77.2%, 51.5%)" stroke-width="1.5"></path><path d="M1595.94 845.77L1387.84 701.6" stroke="hsl(228.5, 77.2%, 51.5%)" stroke-width="1.5"></path><path d="M1595.94 845.77L1611.82 524.17" stroke="hsl(228.5, 77.2%, 51.5%)" stroke-width="1.5"></path><path d="M-57.13 804.22L-57.13 804.22" stroke="hsl(228.5, 77.2%, 51.5%)" stroke-width="1.5"></path><path d="M-57.13 804.22L-94.37 952.01" stroke="hsl(228.5, 77.2%, 51.5%)" stroke-width="1.5"></path><path d="M-57.13 804.22L110.34 942.45" stroke="hsl(228.5, 77.2%, 51.5%)" stroke-width="1.5"></path><path d="M-57.13 804.22L217.83 841.23" stroke="hsl(228.5, 77.2%, 51.5%)" stroke-width="1.5"></path><path d="M-57.13 804.22L211.25 976.96" stroke="hsl(228.5, 77.2%, 51.5%)" stroke-width="1.5"></path><path d="M-57.13 804.22L357.14 823.46" stroke="hsl(228.5, 77.2%, 51.5%)" stroke-width="1.5"></path><path d="M-94.37 952.01L-94.37 952.01" stroke="hsl(228.5, 77.2%, 51.5%)" stroke-width="1.5"></path><path d="M-94.37 952.01L110.34 942.45" stroke="hsl(228.5, 77.2%, 51.5%)" stroke-width="1.5"></path><path d="M-94.37 952.01L41.14 795.37" stroke="hsl(228.5, 77.2%, 51.5%)" stroke-width="1.5"></path><path d="M-94.37 952.01L211.25 976.96" stroke="hsl(228.5, 77.2%, 51.5%)" stroke-width="1.5"></path><path d="M-94.37 952.01L217.83 841.23" stroke="hsl(228.5, 77.2%, 51.5%)" stroke-width="1.5"></path><path d="M110.34 942.45L110.34 942.45" stroke="hsl(228.5, 77.2%, 51.5%)" stroke-width="1.5"></path><path d="M110.34 942.45L211.25 976.96" stroke="hsl(228.5, 77.2%, 51.5%)" stroke-width="1.5"></path><path d="M110.34 942.45L217.83 841.23" stroke="hsl(228.5, 77.2%, 51.5%)" stroke-width="1.5"></path><path d="M217.83 841.23L217.83 841.23" stroke="hsl(228.5, 77.2%, 51.5%)" stroke-width="1.5"></path><path d="M217.83 841.23L211.25 976.96" stroke="hsl(228.5, 77.2%, 51.5%)" stroke-width="1.5"></path><path d="M217.83 841.23L357.14 823.46" stroke="hsl(228.5, 77.2%, 51.5%)" stroke-width="1.5"></path><path d="M211.25 976.96L211.25 976.96" stroke="hsl(228.5, 77.2%, 51.5%)" stroke-width="1.5"></path><path d="M357.14 823.46L357.14 823.46" stroke="hsl(228.5, 77.2%, 51.5%)" stroke-width="1.5"></path><path d="M519.68 989.91L519.68 989.91" stroke="hsl(228.5, 77.2%, 51.5%)" stroke-width="1.5"></path><path d="M519.68 989.91L651.37 1009.31" stroke="hsl(228.5, 77.2%, 51.5%)" stroke-width="1.5"></path><path d="M687.27 670.57L687.27 670.57" stroke="hsl(228.5, 77.2%, 51.5%)" stroke-width="1.5"></path><path d="M687.27 670.57L699.55 817.9" stroke="hsl(228.5, 77.2%, 51.5%)" stroke-width="1.5"></path><path d="M687.27 670.57L857.19 668.86" stroke="hsl(228.5, 77.2%, 51.5%)" stroke-width="1.5"></path><path d="M687.27 670.57L844.12 535.31" stroke="hsl(228.5, 77.2%, 51.5%)" stroke-width="1.5"></path><path d="M687.27 670.57L838.07 821.19" stroke="hsl(228.5, 77.2%, 51.5%)" stroke-width="1.5"></path><path d="M699.55 817.9L699.55 817.9" stroke="hsl(228.5, 77.2%, 51.5%)" stroke-width="1.5"></path><path d="M699.55 817.9L651.37 1009.31" stroke="hsl(228.5, 77.2%, 51.5%)" stroke-width="1.5"></path><path d="M699.55 817.9L488.51 846.2" stroke="hsl(228.5, 77.2%, 51.5%)" stroke-width="1.5"></path><path d="M699.55 817.9L857.19 668.86" stroke="hsl(228.5, 77.2%, 51.5%)" stroke-width="1.5"></path><path d="M651.37 1009.31L651.37 1009.31" stroke="hsl(228.5, 77.2%, 51.5%)" stroke-width="1.5"></path><path d="M651.37 1009.31L841.14 986.84" stroke="hsl(228.5, 77.2%, 51.5%)" stroke-width="1.5"></path><path d="M651.37 1009.31L488.51 846.2" stroke="hsl(228.5, 77.2%, 51.5%)" stroke-width="1.5"></path><path d="M651.37 1009.31L838.07 821.19" stroke="hsl(228.5, 77.2%, 51.5%)" stroke-width="1.5"></path><path d="M651.37 1009.31L364.22 962.05" stroke="hsl(228.5, 77.2%, 51.5%)" stroke-width="1.5"></path><path d="M844.12 535.31L844.12 535.31" stroke="hsl(228.5, 77.2%, 51.5%)" stroke-width="1.5"></path><path d="M844.12 535.31L857.19 668.86" stroke="hsl(228.5, 77.2%, 51.5%)" stroke-width="1.5"></path><path d="M857.19 668.86L857.19 668.86" stroke="hsl(228.5, 77.2%, 51.5%)" stroke-width="1.5"></path><path d="M841.14 986.84L841.14 986.84" stroke="hsl(228.5, 77.2%, 51.5%)" stroke-width="1.5"></path><path d="M841.14 986.84L967.31 953.6" stroke="hsl(228.5, 77.2%, 51.5%)" stroke-width="1.5"></path><path d="M841.14 986.84L838.07 821.19" stroke="hsl(228.5, 77.2%, 51.5%)" stroke-width="1.5"></path><path d="M841.14 986.84L699.55 817.9" stroke="hsl(228.5, 77.2%, 51.5%)" stroke-width="1.5"></path><path d="M841.14 986.84L1003.16 809" stroke="hsl(228.5, 77.2%, 51.5%)" stroke-width="1.5"></path><path d="M841.14 986.84L1088.85 797.4" stroke="hsl(228.5, 77.2%, 51.5%)" stroke-width="1.5"></path><path d="M1003.16 809L1003.16 809" stroke="hsl(228.5, 77.2%, 51.5%)" stroke-width="1.5"></path><path d="M1003.16 809L967.31 953.6" stroke="hsl(228.5, 77.2%, 51.5%)" stroke-width="1.5"></path><path d="M967.31 953.6L967.31 953.6" stroke="hsl(228.5, 77.2%, 51.5%)" stroke-width="1.5"></path><path d="M967.31 953.6L838.07 821.19" stroke="hsl(228.5, 77.2%, 51.5%)" stroke-width="1.5"></path><path d="M967.31 953.6L1156 970.8" stroke="hsl(228.5, 77.2%, 51.5%)" stroke-width="1.5"></path><path d="M967.31 953.6L1088.85 797.4" stroke="hsl(228.5, 77.2%, 51.5%)" stroke-width="1.5"></path><path d="M1150.37 499.21L1150.37 499.21" stroke="hsl(228.5, 77.2%, 51.5%)" stroke-width="1.5"></path><path d="M1150.37 499.21L1244.9 525.63" stroke="hsl(228.5, 77.2%, 51.5%)" stroke-width="1.5"></path><path d="M1150.37 499.21L1248.85 396.36" stroke="hsl(228.5, 77.2%, 51.5%)" stroke-width="1.5"></path><path d="M1150.37 499.21L1127.78 681.7" stroke="hsl(228.5, 77.2%, 51.5%)" stroke-width="1.5"></path><path d="M1150.37 499.21L1270.8 641.34" stroke="hsl(228.5, 77.2%, 51.5%)" stroke-width="1.5"></path><path d="M1127.78 681.7L1127.78 681.7" stroke="hsl(228.5, 77.2%, 51.5%)" stroke-width="1.5"></path><path d="M1127.78 681.7L1088.85 797.4" stroke="hsl(228.5, 77.2%, 51.5%)" stroke-width="1.5"></path><path d="M1127.78 681.7L1270.8 641.34" stroke="hsl(228.5, 77.2%, 51.5%)" stroke-width="1.5"></path><path d="M1127.78 681.7L1003.16 809" stroke="hsl(228.5, 77.2%, 51.5%)" stroke-width="1.5"></path><path d="M1127.78 681.7L1244.9 525.63" stroke="hsl(228.5, 77.2%, 51.5%)" stroke-width="1.5"></path><path d="M1127.78 681.7L1387.84 701.6" stroke="hsl(228.5, 77.2%, 51.5%)" stroke-width="1.5"></path><path d="M1156 970.8L1156 970.8" stroke="hsl(228.5, 77.2%, 51.5%)" stroke-width="1.5"></path><path d="M1156 970.8L1285.85 940.6" stroke="hsl(228.5, 77.2%, 51.5%)" stroke-width="1.5"></path><path d="M1156 970.8L1088.85 797.4" stroke="hsl(228.5, 77.2%, 51.5%)" stroke-width="1.5"></path><path d="M1248.85 396.36L1248.85 396.36" stroke="hsl(228.5, 77.2%, 51.5%)" stroke-width="1.5"></path><path d="M1248.85 396.36L1244.9 525.63" stroke="hsl(228.5, 77.2%, 51.5%)" stroke-width="1.5"></path><path d="M1248.85 396.36L1438.04 412.4" stroke="hsl(228.5, 77.2%, 51.5%)" stroke-width="1.5"></path><path d="M1244.9 525.63L1244.9 525.63" stroke="hsl(228.5, 77.2%, 51.5%)" stroke-width="1.5"></path><path d="M1244.9 525.63L1270.8 641.34" stroke="hsl(228.5, 77.2%, 51.5%)" stroke-width="1.5"></path><path d="M1270.8 641.34L1270.8 641.34" stroke="hsl(228.5, 77.2%, 51.5%)" stroke-width="1.5"></path><path d="M1270.8 641.34L1387.84 701.6" stroke="hsl(228.5, 77.2%, 51.5%)" stroke-width="1.5"></path><path d="M1270.8 641.34L1421.32 534.17" stroke="hsl(228.5, 77.2%, 51.5%)" stroke-width="1.5"></path><path d="M1285.85 940.6L1285.85 940.6" stroke="hsl(228.5, 77.2%, 51.5%)" stroke-width="1.5"></path><path d="M1285.85 940.6L1443.79 793.97" stroke="hsl(228.5, 77.2%, 51.5%)" stroke-width="1.5"></path><path d="M1405.53 -79.88L1405.53 -79.88" stroke="hsl(228.5, 77.2%, 51.5%)" stroke-width="1.5"></path><path d="M1405.53 -79.88L1433.74 71.82" stroke="hsl(228.5, 77.2%, 51.5%)" stroke-width="1.5"></path><path d="M1405.53 -79.88L1586.34 -72.54" stroke="hsl(228.5, 77.2%, 51.5%)" stroke-width="1.5"></path><path d="M1433.74 71.82L1433.74 71.82" stroke="hsl(228.5, 77.2%, 51.5%)" stroke-width="1.5"></path><path d="M1438.04 412.4L1438.04 412.4" stroke="hsl(228.5, 77.2%, 51.5%)" stroke-width="1.5"></path><path d="M1438.04 412.4L1421.32 534.17" stroke="hsl(228.5, 77.2%, 51.5%)" stroke-width="1.5"></path><path d="M1421.32 534.17L1421.32 534.17" stroke="hsl(228.5, 77.2%, 51.5%)" stroke-width="1.5"></path><path d="M1421.32 534.17L1387.84 701.6" stroke="hsl(228.5, 77.2%, 51.5%)" stroke-width="1.5"></path><path d="M1421.32 534.17L1244.9 525.63" stroke="hsl(228.5, 77.2%, 51.5%)" stroke-width="1.5"></path><path d="M1421.32 534.17L1611.82 524.17" stroke="hsl(228.5, 77.2%, 51.5%)" stroke-width="1.5"></path><path d="M1387.84 701.6L1387.84 701.6" stroke="hsl(228.5, 77.2%, 51.5%)" stroke-width="1.5"></path><path d="M1387.84 701.6L1443.79 793.97" stroke="hsl(228.5, 77.2%, 51.5%)" stroke-width="1.5"></path><path d="M1387.84 701.6L1558.91 668.25" stroke="hsl(228.5, 77.2%, 51.5%)" stroke-width="1.5"></path><path d="M1387.84 701.6L1244.9 525.63" stroke="hsl(228.5, 77.2%, 51.5%)" stroke-width="1.5"></path><path d="M1443.79 793.97L1443.79 793.97" stroke="hsl(228.5, 77.2%, 51.5%)" stroke-width="1.5"></path><path d="M1443.79 793.97L1558.91 668.25" stroke="hsl(228.5, 77.2%, 51.5%)" stroke-width="1.5"></path><path d="M1586.34 -72.54L1586.34 -72.54" stroke="hsl(228.5, 77.2%, 51.5%)" stroke-width="1.5"></path><path d="M1586.34 -72.54L1593.55 43.95" stroke="hsl(228.5, 77.2%, 51.5%)" stroke-width="1.5"></path><path d="M1586.34 -72.54L1433.74 71.82" stroke="hsl(228.5, 77.2%, 51.5%)" stroke-width="1.5"></path><path d="M1586.34 -72.54L1585.25 249.24" stroke="hsl(228.5, 77.2%, 51.5%)" stroke-width="1.5"></path><path d="M1586.34 -72.54L1308.52 109.51" stroke="hsl(228.5, 77.2%, 51.5%)" stroke-width="1.5"></path><path d="M1593.55 43.95L1593.55 43.95" stroke="hsl(228.5, 77.2%, 51.5%)" stroke-width="1.5"></path><path d="M1593.55 43.95L1433.74 71.82" stroke="hsl(228.5, 77.2%, 51.5%)" stroke-width="1.5"></path><path d="M1593.55 43.95L1585.25 249.24" stroke="hsl(228.5, 77.2%, 51.5%)" stroke-width="1.5"></path><path d="M1585.25 249.24L1585.25 249.24" stroke="hsl(228.5, 77.2%, 51.5%)" stroke-width="1.5"></path><path d="M1585.25 249.24L1398.25 216.15" stroke="hsl(228.5, 77.2%, 51.5%)" stroke-width="1.5"></path><path d="M1611.82 524.17L1611.82 524.17" stroke="hsl(228.5, 77.2%, 51.5%)" stroke-width="1.5"></path><path d="M1611.82 524.17L1558.91 668.25" stroke="hsl(228.5, 77.2%, 51.5%)" stroke-width="1.5"></path><path d="M1611.82 524.17L1583.33 371.35" stroke="hsl(228.5, 77.2%, 51.5%)" stroke-width="1.5"></path><path d="M1611.82 524.17L1438.04 412.4" stroke="hsl(228.5, 77.2%, 51.5%)" stroke-width="1.5"></path><path d="M1611.82 524.17L1585.25 249.24" stroke="hsl(228.5, 77.2%, 51.5%)" stroke-width="1.5"></path><path d="M1558.91 668.25L1558.91 668.25" stroke="hsl(228.5, 77.2%, 51.5%)" stroke-width="1.5"></path><path d="M1558.91 668.25L1421.32 534.17" stroke="hsl(228.5, 77.2%, 51.5%)" stroke-width="1.5"></path><path d="M1579.3 1007.19L1579.3 1007.19" stroke="hsl(228.5, 77.2%, 51.5%)" stroke-width="1.5"></path><path d="M1579.3 1007.19L1443.79 793.97" stroke="hsl(228.5, 77.2%, 51.5%)" stroke-width="1.5"></path><path d="M1579.3 1007.19L1285.85 940.6" stroke="hsl(228.5, 77.2%, 51.5%)" stroke-width="1.5"></path><path d="M1579.3 1007.19L1558.91 668.25" stroke="hsl(228.5, 77.2%, 51.5%)" stroke-width="1.5"></path><path d="M1579.3 1007.19L1387.84 701.6" stroke="hsl(228.5, 77.2%, 51.5%)" stroke-width="1.5"></path><circle r="25" cx="41.14" cy="795.37" fill="url(#SvgjsRadialGradient1033)"></circle><circle r="25" cx="364.22" cy="962.05" fill="url(#SvgjsRadialGradient1033)"></circle><circle r="25" cx="519.69" cy="652.57" fill="url(#SvgjsRadialGradient1033)"></circle><circle r="25" cx="488.51" cy="846.2" fill="url(#SvgjsRadialGradient1033)"></circle><circle r="25" cx="838.07" cy="821.19" fill="url(#SvgjsRadialGradient1033)"></circle><circle r="25" cx="1105.57" cy="401.17" fill="url(#SvgjsRadialGradient1033)"></circle><circle r="25" cx="1088.85" cy="797.4" fill="url(#SvgjsRadialGradient1033)"></circle><circle r="25" cx="1241.34" cy="-65.74" fill="url(#SvgjsRadialGradient1033)"></circle><circle r="25" cx="1308.52" cy="109.51" fill="url(#SvgjsRadialGradient1033)"></circle><circle r="25" cx="1398.25" cy="216.15" fill="url(#SvgjsRadialGradient1033)"></circle><circle r="25" cx="1416.91" cy="965.24" fill="url(#SvgjsRadialGradient1033)"></circle><circle r="25" cx="1583.33" cy="371.35" fill="url(#SvgjsRadialGradient1033)"></circle><circle r="25" cx="1595.94" cy="845.77" fill="url(#SvgjsRadialGradient1033)"></circle><circle r="5" cx="-57.13" cy="804.22" fill="#8b9ad9"></circle><circle r="5" cx="-94.37" cy="952.01" fill="#8b9ad9"></circle><circle r="5" cx="110.34" cy="942.45" fill="#8b9ad9"></circle><circle r="5" cx="217.83" cy="841.23" fill="#8b9ad9"></circle><circle r="5" cx="211.25" cy="976.96" fill="#8b9ad9"></circle><circle r="5" cx="357.14" cy="823.46" fill="#8b9ad9"></circle><circle r="5" cx="519.68" cy="989.91" fill="#8b9ad9"></circle><circle r="5" cx="687.27" cy="670.57" fill="#8b9ad9"></circle><circle r="5" cx="699.55" cy="817.9" fill="#8b9ad9"></circle><circle r="5" cx="651.37" cy="1009.31" fill="#8b9ad9"></circle><circle r="5" cx="844.12" cy="535.31" fill="#8b9ad9"></circle><circle r="5" cx="857.19" cy="668.86" fill="#8b9ad9"></circle><circle r="5" cx="841.14" cy="986.84" fill="#8b9ad9"></circle><circle r="5" cx="1003.16" cy="809" fill="#8b9ad9"></circle><circle r="5" cx="967.31" cy="953.6" fill="#8b9ad9"></circle><circle r="5" cx="1150.37" cy="499.21" fill="#8b9ad9"></circle><circle r="5" cx="1127.78" cy="681.7" fill="#8b9ad9"></circle><circle r="5" cx="1156" cy="970.8" fill="#8b9ad9"></circle><circle r="5" cx="1248.85" cy="396.36" fill="#8b9ad9"></circle><circle r="5" cx="1244.9" cy="525.63" fill="#8b9ad9"></circle><circle r="5" cx="1270.8" cy="641.34" fill="#8b9ad9"></circle><circle r="5" cx="1285.85" cy="940.6" fill="#8b9ad9"></circle><circle r="5" cx="1405.53" cy="-79.88" fill="#8b9ad9"></circle><circle r="5" cx="1433.74" cy="71.82" fill="#8b9ad9"></circle><circle r="5" cx="1438.04" cy="412.4" fill="#8b9ad9"></circle><circle r="5" cx="1421.32" cy="534.17" fill="#8b9ad9"></circle><circle r="5" cx="1387.84" cy="701.6" fill="#8b9ad9"></circle><circle r="5" cx="1443.79" cy="793.97" fill="#8b9ad9"></circle><circle r="5" cx="1586.34" cy="-72.54" fill="#8b9ad9"></circle><circle r="5" cx="1593.55" cy="43.95" fill="#8b9ad9"></circle><circle r="5" cx="1585.25" cy="249.24" fill="#8b9ad9"></circle><circle r="5" cx="1611.82" cy="524.17" fill="#8b9ad9"></circle><circle r="5" cx="1558.91" cy="668.25" fill="#8b9ad9"></circle><circle r="5" cx="1579.3" cy="1007.19" fill="#8b9ad9"></circle></g><defs><mask id="SvgjsMask1032"><rect width="1440" height="900" fill="#ffffff"></rect></mask><radialGradient id="SvgjsRadialGradient1033"><stop stop-color="#ffffff" offset="0.1"></stop><stop stop-color="#1735b3" offset="0.2"></stop><stop stop-color="rgba(23, 53, 179, 0)" offset="1"></stop></radialGradient></defs></svg>