<svg xmlns="http://www.w3.org/2000/svg" version="1.1" xmlns:xlink="http://www.w3.org/1999/xlink" xmlns:svgjs="http://svgjs.com/svgjs" width="1440" height="560" preserveAspectRatio="none" viewBox="0 0 1440 560"><g mask="url(&quot;#SvgjsMask1000&quot;)" fill="none"><rect width="1440" height="560" x="0" y="0" fill="#0e2a47"></rect><path d="M-96.78 374.35L-96.78 374.35" stroke="#132e65" stroke-width="1.5"></path><path d="M-96.78 374.35L41.25 402.92" stroke="#132e65" stroke-width="1.5"></path><path d="M-96.78 374.35L-83.24 531.43" stroke="#132e65" stroke-width="1.5"></path><path d="M-96.78 374.35L101.88 530.88" stroke="#132e65" stroke-width="1.5"></path><path d="M-96.78 374.35L-73.18 658.78" stroke="#132e65" stroke-width="1.5"></path><path d="M-96.78 374.35L190.06 375.02" stroke="#132e65" stroke-width="1.5"></path><path d="M-96.78 374.35L72.72 679.33" stroke="#132e65" stroke-width="1.5"></path><path d="M-83.24 531.43L-83.24 531.43" stroke="#132e65" stroke-width="1.5"></path><path d="M-83.24 531.43L-73.18 658.78" stroke="#132e65" stroke-width="1.5"></path><path d="M-83.24 531.43L41.25 402.92" stroke="#132e65" stroke-width="1.5"></path><path d="M-73.18 658.78L-73.18 658.78" stroke="#132e65" stroke-width="1.5"></path><path d="M-73.18 658.78L72.72 679.33" stroke="#132e65" stroke-width="1.5"></path><path d="M-73.18 658.78L101.88 530.88" stroke="#132e65" stroke-width="1.5"></path><path d="M-73.18 658.78L41.25 402.92" stroke="#132e65" stroke-width="1.5"></path><path d="M-73.18 658.78L219.23 655.13" stroke="#132e65" stroke-width="1.5"></path><path d="M41.25 402.92L41.25 402.92" stroke="#132e65" stroke-width="1.5"></path><path d="M41.25 402.92L101.88 530.88" stroke="#132e65" stroke-width="1.5"></path><path d="M41.25 402.92L190.06 375.02" stroke="#132e65" stroke-width="1.5"></path><path d="M101.88 530.88L101.88 530.88" stroke="#132e65" stroke-width="1.5"></path><path d="M101.88 530.88L219.48 548.04" stroke="#132e65" stroke-width="1.5"></path><path d="M101.88 530.88L72.72 679.33" stroke="#132e65" stroke-width="1.5"></path><path d="M101.88 530.88L219.23 655.13" stroke="#132e65" stroke-width="1.5"></path><path d="M101.88 530.88L190.06 375.02" stroke="#132e65" stroke-width="1.5"></path><path d="M101.88 530.88L-83.24 531.43" stroke="#132e65" stroke-width="1.5"></path><path d="M72.72 679.33L72.72 679.33" stroke="#132e65" stroke-width="1.5"></path><path d="M72.72 679.33L219.23 655.13" stroke="#132e65" stroke-width="1.5"></path><path d="M72.72 679.33L219.48 548.04" stroke="#132e65" stroke-width="1.5"></path><path d="M72.72 679.33L-83.24 531.43" stroke="#132e65" stroke-width="1.5"></path><path d="M190.06 375.02L190.06 375.02" stroke="#132e65" stroke-width="1.5"></path><path d="M190.06 375.02L348.13 397.79" stroke="#132e65" stroke-width="1.5"></path><path d="M190.06 375.02L219.48 548.04" stroke="#132e65" stroke-width="1.5"></path><path d="M219.48 548.04L219.48 548.04" stroke="#132e65" stroke-width="1.5"></path><path d="M219.48 548.04L219.23 655.13" stroke="#132e65" stroke-width="1.5"></path><path d="M219.23 655.13L219.23 655.13" stroke="#132e65" stroke-width="1.5"></path><path d="M348.13 397.79L348.13 397.79" stroke="#132e65" stroke-width="1.5"></path><path d="M348.13 397.79L370.3 532.68" stroke="#132e65" stroke-width="1.5"></path><path d="M348.13 397.79L500.63 353.29" stroke="#132e65" stroke-width="1.5"></path><path d="M348.13 397.79L491.5 488.38" stroke="#132e65" stroke-width="1.5"></path><path d="M348.13 397.79L219.48 548.04" stroke="#132e65" stroke-width="1.5"></path><path d="M370.3 532.68L370.3 532.68" stroke="#132e65" stroke-width="1.5"></path><path d="M370.3 532.68L491.5 488.38" stroke="#132e65" stroke-width="1.5"></path><path d="M365.15 709.9L365.15 709.9" stroke="#132e65" stroke-width="1.5"></path><path d="M365.15 709.9L219.23 655.13" stroke="#132e65" stroke-width="1.5"></path><path d="M365.15 709.9L370.3 532.68" stroke="#132e65" stroke-width="1.5"></path><path d="M365.15 709.9L547.19 673.93" stroke="#132e65" stroke-width="1.5"></path><path d="M365.15 709.9L219.48 548.04" stroke="#132e65" stroke-width="1.5"></path><path d="M500.63 353.29L500.63 353.29" stroke="#132e65" stroke-width="1.5"></path><path d="M500.63 353.29L491.5 488.38" stroke="#132e65" stroke-width="1.5"></path><path d="M500.63 353.29L699.07 356.53" stroke="#132e65" stroke-width="1.5"></path><path d="M500.63 353.29L370.3 532.68" stroke="#132e65" stroke-width="1.5"></path><path d="M491.5 488.38L491.5 488.38" stroke="#132e65" stroke-width="1.5"></path><path d="M491.5 488.38L660.36 540.84" stroke="#132e65" stroke-width="1.5"></path><path d="M491.5 488.38L547.19 673.93" stroke="#132e65" stroke-width="1.5"></path><path d="M491.5 488.38L699.07 356.53" stroke="#132e65" stroke-width="1.5"></path><path d="M547.19 673.93L547.19 673.93" stroke="#132e65" stroke-width="1.5"></path><path d="M547.19 673.93L705.1 660.31" stroke="#132e65" stroke-width="1.5"></path><path d="M547.19 673.93L660.36 540.84" stroke="#132e65" stroke-width="1.5"></path><path d="M547.19 673.93L370.3 532.68" stroke="#132e65" stroke-width="1.5"></path><path d="M547.19 673.93L827.06 652.52" stroke="#132e65" stroke-width="1.5"></path><path d="M683.36 212.11L683.36 212.11" stroke="#132e65" stroke-width="1.5"></path><path d="M683.36 212.11L822.13 240.69" stroke="#132e65" stroke-width="1.5"></path><path d="M683.36 212.11L699.07 356.53" stroke="#132e65" stroke-width="1.5"></path><path d="M699.07 356.53L699.07 356.53" stroke="#132e65" stroke-width="1.5"></path><path d="M699.07 356.53L841.96 384.77" stroke="#132e65" stroke-width="1.5"></path><path d="M699.07 356.53L822.13 240.69" stroke="#132e65" stroke-width="1.5"></path><path d="M699.07 356.53L660.36 540.84" stroke="#132e65" stroke-width="1.5"></path><path d="M660.36 540.84L660.36 540.84" stroke="#132e65" stroke-width="1.5"></path><path d="M660.36 540.84L705.1 660.31" stroke="#132e65" stroke-width="1.5"></path><path d="M705.1 660.31L705.1 660.31" stroke="#132e65" stroke-width="1.5"></path><path d="M705.1 660.31L827.06 652.52" stroke="#132e65" stroke-width="1.5"></path><path d="M822.13 240.69L822.13 240.69" stroke="#132e65" stroke-width="1.5"></path><path d="M822.13 240.69L940.48 212.66" stroke="#132e65" stroke-width="1.5"></path><path d="M822.13 240.69L841.96 384.77" stroke="#132e65" stroke-width="1.5"></path><path d="M841.96 384.77L841.96 384.77" stroke="#132e65" stroke-width="1.5"></path><path d="M841.96 384.77L941.47 386.51" stroke="#132e65" stroke-width="1.5"></path><path d="M841.4 546.95L841.4 546.95" stroke="#132e65" stroke-width="1.5"></path><path d="M841.4 546.95L827.06 652.52" stroke="#132e65" stroke-width="1.5"></path><path d="M841.4 546.95L937.78 657.89" stroke="#132e65" stroke-width="1.5"></path><path d="M841.4 546.95L841.96 384.77" stroke="#132e65" stroke-width="1.5"></path><path d="M841.4 546.95L1002.5 489.85" stroke="#132e65" stroke-width="1.5"></path><path d="M827.06 652.52L827.06 652.52" stroke="#132e65" stroke-width="1.5"></path><path d="M1010.43 106.82L1010.43 106.82" stroke="#132e65" stroke-width="1.5"></path><path d="M1010.43 106.82L1104.62 75.12" stroke="#132e65" stroke-width="1.5"></path><path d="M1010.43 106.82L940.48 212.66" stroke="#132e65" stroke-width="1.5"></path><path d="M1010.43 106.82L1152.44 246.97" stroke="#132e65" stroke-width="1.5"></path><path d="M1010.43 106.82L822.13 240.69" stroke="#132e65" stroke-width="1.5"></path><path d="M1010.43 106.82L1159.88 -75.18" stroke="#132e65" stroke-width="1.5"></path><path d="M940.48 212.66L940.48 212.66" stroke="#132e65" stroke-width="1.5"></path><path d="M940.48 212.66L941.47 386.51" stroke="#132e65" stroke-width="1.5"></path><path d="M940.48 212.66L841.96 384.77" stroke="#132e65" stroke-width="1.5"></path><path d="M941.47 386.51L941.47 386.51" stroke="#132e65" stroke-width="1.5"></path><path d="M941.47 386.51L1002.5 489.85" stroke="#132e65" stroke-width="1.5"></path><path d="M1002.5 489.85L1002.5 489.85" stroke="#132e65" stroke-width="1.5"></path><path d="M1002.5 489.85L1106.06 560.97" stroke="#132e65" stroke-width="1.5"></path><path d="M937.78 657.89L937.78 657.89" stroke="#132e65" stroke-width="1.5"></path><path d="M937.78 657.89L827.06 652.52" stroke="#132e65" stroke-width="1.5"></path><path d="M937.78 657.89L1002.5 489.85" stroke="#132e65" stroke-width="1.5"></path><path d="M937.78 657.89L1106.06 560.97" stroke="#132e65" stroke-width="1.5"></path><path d="M937.78 657.89L1147.39 647.24" stroke="#132e65" stroke-width="1.5"></path><path d="M937.78 657.89L705.1 660.31" stroke="#132e65" stroke-width="1.5"></path><path d="M1159.88 -75.18L1159.88 -75.18" stroke="#132e65" stroke-width="1.5"></path><path d="M1159.88 -75.18L1245.16 -80.96" stroke="#132e65" stroke-width="1.5"></path><path d="M1159.88 -75.18L1104.62 75.12" stroke="#132e65" stroke-width="1.5"></path><path d="M1104.62 75.12L1104.62 75.12" stroke="#132e65" stroke-width="1.5"></path><path d="M1104.62 75.12L1152.44 246.97" stroke="#132e65" stroke-width="1.5"></path><path d="M1104.62 75.12L1290.22 102.54" stroke="#132e65" stroke-width="1.5"></path><path d="M1152.44 246.97L1152.44 246.97" stroke="#132e65" stroke-width="1.5"></path><path d="M1152.44 246.97L1161.38 338.95" stroke="#132e65" stroke-width="1.5"></path><path d="M1152.44 246.97L1278.37 200.75" stroke="#132e65" stroke-width="1.5"></path><path d="M1161.38 338.95L1161.38 338.95" stroke="#132e65" stroke-width="1.5"></path><path d="M1161.38 338.95L1290.65 399.23" stroke="#132e65" stroke-width="1.5"></path><path d="M1161.38 338.95L1278.37 200.75" stroke="#132e65" stroke-width="1.5"></path><path d="M1161.38 338.95L1002.5 489.85" stroke="#132e65" stroke-width="1.5"></path><path d="M1161.38 338.95L941.47 386.51" stroke="#132e65" stroke-width="1.5"></path><path d="M1106.06 560.97L1106.06 560.97" stroke="#132e65" stroke-width="1.5"></path><path d="M1106.06 560.97L1147.39 647.24" stroke="#132e65" stroke-width="1.5"></path><path d="M1106.06 560.97L1309.3 550.96" stroke="#132e65" stroke-width="1.5"></path><path d="M1147.39 647.24L1147.39 647.24" stroke="#132e65" stroke-width="1.5"></path><path d="M1147.39 647.24L1301 694.72" stroke="#132e65" stroke-width="1.5"></path><path d="M1147.39 647.24L1309.3 550.96" stroke="#132e65" stroke-width="1.5"></path><path d="M1245.16 -80.96L1245.16 -80.96" stroke="#132e65" stroke-width="1.5"></path><path d="M1245.16 -80.96L1411.53 -80.51" stroke="#132e65" stroke-width="1.5"></path><path d="M1245.16 -80.96L1290.22 102.54" stroke="#132e65" stroke-width="1.5"></path><path d="M1245.16 -80.96L1104.62 75.12" stroke="#132e65" stroke-width="1.5"></path><path d="M1290.22 102.54L1290.22 102.54" stroke="#132e65" stroke-width="1.5"></path><path d="M1290.22 102.54L1278.37 200.75" stroke="#132e65" stroke-width="1.5"></path><path d="M1290.22 102.54L1428 47.67" stroke="#132e65" stroke-width="1.5"></path><path d="M1278.37 200.75L1278.37 200.75" stroke="#132e65" stroke-width="1.5"></path><path d="M1278.37 200.75L1443.67 253.61" stroke="#132e65" stroke-width="1.5"></path><path d="M1290.65 399.23L1290.65 399.23" stroke="#132e65" stroke-width="1.5"></path><path d="M1309.3 550.96L1309.3 550.96" stroke="#132e65" stroke-width="1.5"></path><path d="M1309.3 550.96L1432.45 536.23" stroke="#132e65" stroke-width="1.5"></path><path d="M1309.3 550.96L1301 694.72" stroke="#132e65" stroke-width="1.5"></path><path d="M1309.3 550.96L1290.65 399.23" stroke="#132e65" stroke-width="1.5"></path><path d="M1309.3 550.96L1401.43 676.61" stroke="#132e65" stroke-width="1.5"></path><path d="M1301 694.72L1301 694.72" stroke="#132e65" stroke-width="1.5"></path><path d="M1301 694.72L1401.43 676.61" stroke="#132e65" stroke-width="1.5"></path><path d="M1301 694.72L1432.45 536.23" stroke="#132e65" stroke-width="1.5"></path><path d="M1411.53 -80.51L1411.53 -80.51" stroke="#132e65" stroke-width="1.5"></path><path d="M1411.53 -80.51L1428 47.67" stroke="#132e65" stroke-width="1.5"></path><path d="M1411.53 -80.51L1574.06 -76.17" stroke="#132e65" stroke-width="1.5"></path><path d="M1428 47.67L1428 47.67" stroke="#132e65" stroke-width="1.5"></path><path d="M1428 47.67L1559.23 80.51" stroke="#132e65" stroke-width="1.5"></path><path d="M1428 47.67L1574.06 -76.17" stroke="#132e65" stroke-width="1.5"></path><path d="M1428 47.67L1443.67 253.61" stroke="#132e65" stroke-width="1.5"></path><path d="M1443.67 253.61L1443.67 253.61" stroke="#132e65" stroke-width="1.5"></path><path d="M1443.67 253.61L1568.53 231.6" stroke="#132e65" stroke-width="1.5"></path><path d="M1443.67 253.61L1446.38 394.48" stroke="#132e65" stroke-width="1.5"></path><path d="M1446.38 394.48L1446.38 394.48" stroke="#132e65" stroke-width="1.5"></path><path d="M1446.38 394.48L1432.45 536.23" stroke="#132e65" stroke-width="1.5"></path><path d="M1446.38 394.48L1290.65 399.23" stroke="#132e65" stroke-width="1.5"></path><path d="M1446.38 394.48L1604.83 351.72" stroke="#132e65" stroke-width="1.5"></path><path d="M1432.45 536.23L1432.45 536.23" stroke="#132e65" stroke-width="1.5"></path><path d="M1401.43 676.61L1401.43 676.61" stroke="#132e65" stroke-width="1.5"></path><path d="M1401.43 676.61L1432.45 536.23" stroke="#132e65" stroke-width="1.5"></path><path d="M1401.43 676.61L1551.3 703.67" stroke="#132e65" stroke-width="1.5"></path><path d="M1401.43 676.61L1147.39 647.24" stroke="#132e65" stroke-width="1.5"></path><path d="M1574.06 -76.17L1574.06 -76.17" stroke="#132e65" stroke-width="1.5"></path><path d="M1574.06 -76.17L1559.23 80.51" stroke="#132e65" stroke-width="1.5"></path><path d="M1574.06 -76.17L1568.53 231.6" stroke="#132e65" stroke-width="1.5"></path><path d="M1574.06 -76.17L1245.16 -80.96" stroke="#132e65" stroke-width="1.5"></path><path d="M1559.23 80.51L1559.23 80.51" stroke="#132e65" stroke-width="1.5"></path><path d="M1559.23 80.51L1568.53 231.6" stroke="#132e65" stroke-width="1.5"></path><path d="M1568.53 231.6L1568.53 231.6" stroke="#132e65" stroke-width="1.5"></path><path d="M1568.53 231.6L1604.83 351.72" stroke="#132e65" stroke-width="1.5"></path><path d="M1604.83 351.72L1604.83 351.72" stroke="#132e65" stroke-width="1.5"></path><path d="M1604.83 351.72L1443.67 253.61" stroke="#132e65" stroke-width="1.5"></path><path d="M1604.83 351.72L1432.45 536.23" stroke="#132e65" stroke-width="1.5"></path><path d="M1604.83 351.72L1559.23 80.51" stroke="#132e65" stroke-width="1.5"></path><path d="M1551.3 703.67L1551.3 703.67" stroke="#132e65" stroke-width="1.5"></path><path d="M1551.3 703.67L1432.45 536.23" stroke="#132e65" stroke-width="1.5"></path><circle r="5" cx="-96.78" cy="374.35" fill="#132e65"></circle><circle r="5" cx="-83.24" cy="531.43" fill="#132e65"></circle><circle r="5" cx="-73.18" cy="658.78" fill="#132e65"></circle><circle r="5" cx="41.25" cy="402.92" fill="#132e65"></circle><circle r="5" cx="101.88" cy="530.88" fill="#132e65"></circle><circle r="5" cx="72.72" cy="679.33" fill="#132e65"></circle><circle r="5" cx="190.06" cy="375.02" fill="#132e65"></circle><circle r="5" cx="219.48" cy="548.04" fill="#132e65"></circle><circle r="5" cx="219.23" cy="655.13" fill="#132e65"></circle><circle r="5" cx="348.13" cy="397.79" fill="#132e65"></circle><circle r="5" cx="370.3" cy="532.68" fill="#132e65"></circle><circle r="5" cx="365.15" cy="709.9" fill="#132e65"></circle><circle r="5" cx="500.63" cy="353.29" fill="#132e65"></circle><circle r="5" cx="491.5" cy="488.38" fill="#132e65"></circle><circle r="5" cx="547.19" cy="673.93" fill="#132e65"></circle><circle r="5" cx="683.36" cy="212.11" fill="#132e65"></circle><circle r="5" cx="699.07" cy="356.53" fill="#132e65"></circle><circle r="5" cx="660.36" cy="540.84" fill="#132e65"></circle><circle r="5" cx="705.1" cy="660.31" fill="#132e65"></circle><circle r="5" cx="822.13" cy="240.69" fill="#132e65"></circle><circle r="5" cx="841.96" cy="384.77" fill="#132e65"></circle><circle r="5" cx="841.4" cy="546.95" fill="#132e65"></circle><circle r="5" cx="827.06" cy="652.52" fill="#132e65"></circle><circle r="5" cx="1010.43" cy="106.82" fill="#132e65"></circle><circle r="5" cx="940.48" cy="212.66" fill="#132e65"></circle><circle r="5" cx="941.47" cy="386.51" fill="#132e65"></circle><circle r="5" cx="1002.5" cy="489.85" fill="#132e65"></circle><circle r="5" cx="937.78" cy="657.89" fill="#132e65"></circle><circle r="5" cx="1159.88" cy="-75.18" fill="#132e65"></circle><circle r="5" cx="1104.62" cy="75.12" fill="#132e65"></circle><circle r="5" cx="1152.44" cy="246.97" fill="#132e65"></circle><circle r="5" cx="1161.38" cy="338.95" fill="#132e65"></circle><circle r="5" cx="1106.06" cy="560.97" fill="#132e65"></circle><circle r="5" cx="1147.39" cy="647.24" fill="#132e65"></circle><circle r="5" cx="1245.16" cy="-80.96" fill="#132e65"></circle><circle r="5" cx="1290.22" cy="102.54" fill="#132e65"></circle><circle r="5" cx="1278.37" cy="200.75" fill="#132e65"></circle><circle r="5" cx="1290.65" cy="399.23" fill="#132e65"></circle><circle r="5" cx="1309.3" cy="550.96" fill="#132e65"></circle><circle r="5" cx="1301" cy="694.72" fill="#132e65"></circle><circle r="5" cx="1411.53" cy="-80.51" fill="#132e65"></circle><circle r="5" cx="1428" cy="47.67" fill="#132e65"></circle><circle r="5" cx="1443.67" cy="253.61" fill="#132e65"></circle><circle r="5" cx="1446.38" cy="394.48" fill="#132e65"></circle><circle r="5" cx="1432.45" cy="536.23" fill="#132e65"></circle><circle r="5" cx="1401.43" cy="676.61" fill="#132e65"></circle><circle r="5" cx="1574.06" cy="-76.17" fill="#132e65"></circle><circle r="5" cx="1559.23" cy="80.51" fill="#132e65"></circle><circle r="5" cx="1568.53" cy="231.6" fill="#132e65"></circle><circle r="5" cx="1604.83" cy="351.72" fill="#132e65"></circle><circle r="5" cx="1551.3" cy="703.67" fill="#132e65"></circle><path d="M404.67 514.21L404.67 514.21" stroke="hsl(228.5, 77.2%, 51.5%)" stroke-width="1.5"></path><path d="M404.67 514.21L506.59 554.05" stroke="hsl(228.5, 77.2%, 51.5%)" stroke-width="1.5"></path><path d="M404.67 514.21L251.64 521.76" stroke="hsl(228.5, 77.2%, 51.5%)" stroke-width="1.5"></path><path d="M404.67 514.21L537.59 405.45" stroke="hsl(228.5, 77.2%, 51.5%)" stroke-width="1.5"></path><path d="M404.67 514.21L405.66 702.92" stroke="hsl(228.5, 77.2%, 51.5%)" stroke-width="1.5"></path><path d="M836.01 652.99L836.01 652.99" stroke="hsl(228.5, 77.2%, 51.5%)" stroke-width="1.5"></path><path d="M836.01 652.99L804.28 548.28" stroke="hsl(228.5, 77.2%, 51.5%)" stroke-width="1.5"></path><path d="M836.01 652.99L960.22 651.63" stroke="hsl(228.5, 77.2%, 51.5%)" stroke-width="1.5"></path><path d="M836.01 652.99L678.78 658.98" stroke="hsl(228.5, 77.2%, 51.5%)" stroke-width="1.5"></path><path d="M836.01 652.99L681.78 524.72" stroke="hsl(228.5, 77.2%, 51.5%)" stroke-width="1.5"></path><path d="M960.22 651.63L960.22 651.63" stroke="hsl(228.5, 77.2%, 51.5%)" stroke-width="1.5"></path><path d="M960.22 651.63L957.07 489.77" stroke="hsl(228.5, 77.2%, 51.5%)" stroke-width="1.5"></path><path d="M960.22 651.63L804.28 548.28" stroke="hsl(228.5, 77.2%, 51.5%)" stroke-width="1.5"></path><path d="M960.22 651.63L1155.83 668.37" stroke="hsl(228.5, 77.2%, 51.5%)" stroke-width="1.5"></path><path d="M1271.02 671.66L1271.02 671.66" stroke="hsl(228.5, 77.2%, 51.5%)" stroke-width="1.5"></path><path d="M1271.02 671.66L1155.83 668.37" stroke="hsl(228.5, 77.2%, 51.5%)" stroke-width="1.5"></path><path d="M1271.02 671.66L1304.71 491.03" stroke="hsl(228.5, 77.2%, 51.5%)" stroke-width="1.5"></path><path d="M1271.02 671.66L1459.8 679.44" stroke="hsl(228.5, 77.2%, 51.5%)" stroke-width="1.5"></path><path d="M1552.31 -45.28L1552.31 -45.28" stroke="hsl(228.5, 77.2%, 51.5%)" stroke-width="1.5"></path><path d="M1552.31 -45.28L1446.92 -98.23" stroke="hsl(228.5, 77.2%, 51.5%)" stroke-width="1.5"></path><path d="M1552.31 -45.28L1577.37 95.56" stroke="hsl(228.5, 77.2%, 51.5%)" stroke-width="1.5"></path><path d="M1552.31 -45.28L1400.07 100.34" stroke="hsl(228.5, 77.2%, 51.5%)" stroke-width="1.5"></path><path d="M1577.37 95.56L1577.37 95.56" stroke="hsl(228.5, 77.2%, 51.5%)" stroke-width="1.5"></path><path d="M1577.37 95.56L1596.21 230.74" stroke="hsl(228.5, 77.2%, 51.5%)" stroke-width="1.5"></path><path d="M1577.37 95.56L1400.07 100.34" stroke="hsl(228.5, 77.2%, 51.5%)" stroke-width="1.5"></path><path d="M1577.37 95.56L1401.17 203.22" stroke="hsl(228.5, 77.2%, 51.5%)" stroke-width="1.5"></path><path d="M1577.37 95.56L1446.92 -98.23" stroke="hsl(228.5, 77.2%, 51.5%)" stroke-width="1.5"></path><path d="M1574.88 399.3L1574.88 399.3" stroke="hsl(228.5, 77.2%, 51.5%)" stroke-width="1.5"></path><path d="M1574.88 399.3L1569.81 559.73" stroke="hsl(228.5, 77.2%, 51.5%)" stroke-width="1.5"></path><path d="M1574.88 399.3L1596.21 230.74" stroke="hsl(228.5, 77.2%, 51.5%)" stroke-width="1.5"></path><path d="M-90.32 504.02L-90.32 504.02" stroke="hsl(228.5, 77.2%, 51.5%)" stroke-width="1.5"></path><path d="M-90.32 504.02L111.51 549.88" stroke="hsl(228.5, 77.2%, 51.5%)" stroke-width="1.5"></path><path d="M-90.32 504.02L42.58 709.94" stroke="hsl(228.5, 77.2%, 51.5%)" stroke-width="1.5"></path><path d="M-90.32 504.02L251.64 521.76" stroke="hsl(228.5, 77.2%, 51.5%)" stroke-width="1.5"></path><path d="M-90.32 504.02L202.42 705.22" stroke="hsl(228.5, 77.2%, 51.5%)" stroke-width="1.5"></path><path d="M-90.32 504.02L404.67 514.21" stroke="hsl(228.5, 77.2%, 51.5%)" stroke-width="1.5"></path><path d="M111.51 549.88L111.51 549.88" stroke="hsl(228.5, 77.2%, 51.5%)" stroke-width="1.5"></path><path d="M111.51 549.88L251.64 521.76" stroke="hsl(228.5, 77.2%, 51.5%)" stroke-width="1.5"></path><path d="M111.51 549.88L42.58 709.94" stroke="hsl(228.5, 77.2%, 51.5%)" stroke-width="1.5"></path><path d="M111.51 549.88L202.42 705.22" stroke="hsl(228.5, 77.2%, 51.5%)" stroke-width="1.5"></path><path d="M42.58 709.94L42.58 709.94" stroke="hsl(228.5, 77.2%, 51.5%)" stroke-width="1.5"></path><path d="M42.58 709.94L202.42 705.22" stroke="hsl(228.5, 77.2%, 51.5%)" stroke-width="1.5"></path><path d="M251.64 521.76L251.64 521.76" stroke="hsl(228.5, 77.2%, 51.5%)" stroke-width="1.5"></path><path d="M251.64 521.76L202.42 705.22" stroke="hsl(228.5, 77.2%, 51.5%)" stroke-width="1.5"></path><path d="M251.64 521.76L405.66 702.92" stroke="hsl(228.5, 77.2%, 51.5%)" stroke-width="1.5"></path><path d="M202.42 705.22L202.42 705.22" stroke="hsl(228.5, 77.2%, 51.5%)" stroke-width="1.5"></path><path d="M202.42 705.22L405.66 702.92" stroke="hsl(228.5, 77.2%, 51.5%)" stroke-width="1.5"></path><path d="M202.42 705.22L404.67 514.21" stroke="hsl(228.5, 77.2%, 51.5%)" stroke-width="1.5"></path><path d="M405.66 702.92L405.66 702.92" stroke="hsl(228.5, 77.2%, 51.5%)" stroke-width="1.5"></path><path d="M405.66 702.92L553.76 697.3" stroke="hsl(228.5, 77.2%, 51.5%)" stroke-width="1.5"></path><path d="M405.66 702.92L506.59 554.05" stroke="hsl(228.5, 77.2%, 51.5%)" stroke-width="1.5"></path><path d="M537.59 405.45L537.59 405.45" stroke="hsl(228.5, 77.2%, 51.5%)" stroke-width="1.5"></path><path d="M537.59 405.45L506.59 554.05" stroke="hsl(228.5, 77.2%, 51.5%)" stroke-width="1.5"></path><path d="M537.59 405.45L696.41 380.76" stroke="hsl(228.5, 77.2%, 51.5%)" stroke-width="1.5"></path><path d="M506.59 554.05L506.59 554.05" stroke="hsl(228.5, 77.2%, 51.5%)" stroke-width="1.5"></path><path d="M506.59 554.05L553.76 697.3" stroke="hsl(228.5, 77.2%, 51.5%)" stroke-width="1.5"></path><path d="M553.76 697.3L553.76 697.3" stroke="hsl(228.5, 77.2%, 51.5%)" stroke-width="1.5"></path><path d="M553.76 697.3L678.78 658.98" stroke="hsl(228.5, 77.2%, 51.5%)" stroke-width="1.5"></path><path d="M553.76 697.3L681.78 524.72" stroke="hsl(228.5, 77.2%, 51.5%)" stroke-width="1.5"></path><path d="M553.76 697.3L404.67 514.21" stroke="hsl(228.5, 77.2%, 51.5%)" stroke-width="1.5"></path><path d="M696.41 380.76L696.41 380.76" stroke="hsl(228.5, 77.2%, 51.5%)" stroke-width="1.5"></path><path d="M696.41 380.76L826.99 393.93" stroke="hsl(228.5, 77.2%, 51.5%)" stroke-width="1.5"></path><path d="M696.41 380.76L681.78 524.72" stroke="hsl(228.5, 77.2%, 51.5%)" stroke-width="1.5"></path><path d="M696.41 380.76L804.28 548.28" stroke="hsl(228.5, 77.2%, 51.5%)" stroke-width="1.5"></path><path d="M696.41 380.76L506.59 554.05" stroke="hsl(228.5, 77.2%, 51.5%)" stroke-width="1.5"></path><path d="M681.78 524.72L681.78 524.72" stroke="hsl(228.5, 77.2%, 51.5%)" stroke-width="1.5"></path><path d="M681.78 524.72L804.28 548.28" stroke="hsl(228.5, 77.2%, 51.5%)" stroke-width="1.5"></path><path d="M681.78 524.72L678.78 658.98" stroke="hsl(228.5, 77.2%, 51.5%)" stroke-width="1.5"></path><path d="M681.78 524.72L506.59 554.05" stroke="hsl(228.5, 77.2%, 51.5%)" stroke-width="1.5"></path><path d="M681.78 524.72L537.59 405.45" stroke="hsl(228.5, 77.2%, 51.5%)" stroke-width="1.5"></path><path d="M681.78 524.72L826.99 393.93" stroke="hsl(228.5, 77.2%, 51.5%)" stroke-width="1.5"></path><path d="M678.78 658.98L678.78 658.98" stroke="hsl(228.5, 77.2%, 51.5%)" stroke-width="1.5"></path><path d="M678.78 658.98L804.28 548.28" stroke="hsl(228.5, 77.2%, 51.5%)" stroke-width="1.5"></path><path d="M826.99 393.93L826.99 393.93" stroke="hsl(228.5, 77.2%, 51.5%)" stroke-width="1.5"></path><path d="M826.99 393.93L804.28 548.28" stroke="hsl(228.5, 77.2%, 51.5%)" stroke-width="1.5"></path><path d="M826.99 393.93L957.07 489.77" stroke="hsl(228.5, 77.2%, 51.5%)" stroke-width="1.5"></path><path d="M826.99 393.93L993.57 383.81" stroke="hsl(228.5, 77.2%, 51.5%)" stroke-width="1.5"></path><path d="M826.99 393.93L947.05 255.41" stroke="hsl(228.5, 77.2%, 51.5%)" stroke-width="1.5"></path><path d="M804.28 548.28L804.28 548.28" stroke="hsl(228.5, 77.2%, 51.5%)" stroke-width="1.5"></path><path d="M804.28 548.28L957.07 489.77" stroke="hsl(228.5, 77.2%, 51.5%)" stroke-width="1.5"></path><path d="M947.05 255.41L947.05 255.41" stroke="hsl(228.5, 77.2%, 51.5%)" stroke-width="1.5"></path><path d="M947.05 255.41L993.57 383.81" stroke="hsl(228.5, 77.2%, 51.5%)" stroke-width="1.5"></path><path d="M947.05 255.41L957.07 489.77" stroke="hsl(228.5, 77.2%, 51.5%)" stroke-width="1.5"></path><path d="M993.57 383.81L993.57 383.81" stroke="hsl(228.5, 77.2%, 51.5%)" stroke-width="1.5"></path><path d="M993.57 383.81L957.07 489.77" stroke="hsl(228.5, 77.2%, 51.5%)" stroke-width="1.5"></path><path d="M957.07 489.77L957.07 489.77" stroke="hsl(228.5, 77.2%, 51.5%)" stroke-width="1.5"></path><path d="M957.07 489.77L1112.81 526.57" stroke="hsl(228.5, 77.2%, 51.5%)" stroke-width="1.5"></path><path d="M957.07 489.77L836.01 652.99" stroke="hsl(228.5, 77.2%, 51.5%)" stroke-width="1.5"></path><path d="M1160.64 -81.79L1160.64 -81.79" stroke="hsl(228.5, 77.2%, 51.5%)" stroke-width="1.5"></path><path d="M1160.64 -81.79L1237.77 -80.57" stroke="hsl(228.5, 77.2%, 51.5%)" stroke-width="1.5"></path><path d="M1160.64 -81.79L1275.56 96.67" stroke="hsl(228.5, 77.2%, 51.5%)" stroke-width="1.5"></path><path d="M1160.64 -81.79L1446.92 -98.23" stroke="hsl(228.5, 77.2%, 51.5%)" stroke-width="1.5"></path><path d="M1160.64 -81.79L1400.07 100.34" stroke="hsl(228.5, 77.2%, 51.5%)" stroke-width="1.5"></path><path d="M1112.81 526.57L1112.81 526.57" stroke="hsl(228.5, 77.2%, 51.5%)" stroke-width="1.5"></path><path d="M1112.81 526.57L1155.83 668.37" stroke="hsl(228.5, 77.2%, 51.5%)" stroke-width="1.5"></path><path d="M1112.81 526.57L993.57 383.81" stroke="hsl(228.5, 77.2%, 51.5%)" stroke-width="1.5"></path><path d="M1112.81 526.57L1304.71 491.03" stroke="hsl(228.5, 77.2%, 51.5%)" stroke-width="1.5"></path><path d="M1112.81 526.57L960.22 651.63" stroke="hsl(228.5, 77.2%, 51.5%)" stroke-width="1.5"></path><path d="M1112.81 526.57L1271.02 671.66" stroke="hsl(228.5, 77.2%, 51.5%)" stroke-width="1.5"></path><path d="M1155.83 668.37L1155.83 668.37" stroke="hsl(228.5, 77.2%, 51.5%)" stroke-width="1.5"></path><path d="M1237.77 -80.57L1237.77 -80.57" stroke="hsl(228.5, 77.2%, 51.5%)" stroke-width="1.5"></path><path d="M1237.77 -80.57L1275.56 96.67" stroke="hsl(228.5, 77.2%, 51.5%)" stroke-width="1.5"></path><path d="M1237.77 -80.57L1446.92 -98.23" stroke="hsl(228.5, 77.2%, 51.5%)" stroke-width="1.5"></path><path d="M1237.77 -80.57L1400.07 100.34" stroke="hsl(228.5, 77.2%, 51.5%)" stroke-width="1.5"></path><path d="M1237.77 -80.57L1299 188.48" stroke="hsl(228.5, 77.2%, 51.5%)" stroke-width="1.5"></path><path d="M1275.56 96.67L1275.56 96.67" stroke="hsl(228.5, 77.2%, 51.5%)" stroke-width="1.5"></path><path d="M1275.56 96.67L1299 188.48" stroke="hsl(228.5, 77.2%, 51.5%)" stroke-width="1.5"></path><path d="M1275.56 96.67L1400.07 100.34" stroke="hsl(228.5, 77.2%, 51.5%)" stroke-width="1.5"></path><path d="M1275.56 96.67L1401.17 203.22" stroke="hsl(228.5, 77.2%, 51.5%)" stroke-width="1.5"></path><path d="M1299 188.48L1299 188.48" stroke="hsl(228.5, 77.2%, 51.5%)" stroke-width="1.5"></path><path d="M1299 188.48L1401.17 203.22" stroke="hsl(228.5, 77.2%, 51.5%)" stroke-width="1.5"></path><path d="M1299 188.48L1400.07 100.34" stroke="hsl(228.5, 77.2%, 51.5%)" stroke-width="1.5"></path><path d="M1299 188.48L1309.82 364.16" stroke="hsl(228.5, 77.2%, 51.5%)" stroke-width="1.5"></path><path d="M1299 188.48L1577.37 95.56" stroke="hsl(228.5, 77.2%, 51.5%)" stroke-width="1.5"></path><path d="M1309.82 364.16L1309.82 364.16" stroke="hsl(228.5, 77.2%, 51.5%)" stroke-width="1.5"></path><path d="M1309.82 364.16L1304.71 491.03" stroke="hsl(228.5, 77.2%, 51.5%)" stroke-width="1.5"></path><path d="M1309.82 364.16L1401.17 203.22" stroke="hsl(228.5, 77.2%, 51.5%)" stroke-width="1.5"></path><path d="M1309.82 364.16L1442.92 559.74" stroke="hsl(228.5, 77.2%, 51.5%)" stroke-width="1.5"></path><path d="M1309.82 364.16L1112.81 526.57" stroke="hsl(228.5, 77.2%, 51.5%)" stroke-width="1.5"></path><path d="M1304.71 491.03L1304.71 491.03" stroke="hsl(228.5, 77.2%, 51.5%)" stroke-width="1.5"></path><path d="M1304.71 491.03L1442.92 559.74" stroke="hsl(228.5, 77.2%, 51.5%)" stroke-width="1.5"></path><path d="M1446.92 -98.23L1446.92 -98.23" stroke="hsl(228.5, 77.2%, 51.5%)" stroke-width="1.5"></path><path d="M1446.92 -98.23L1400.07 100.34" stroke="hsl(228.5, 77.2%, 51.5%)" stroke-width="1.5"></path><path d="M1446.92 -98.23L1275.56 96.67" stroke="hsl(228.5, 77.2%, 51.5%)" stroke-width="1.5"></path><path d="M1400.07 100.34L1400.07 100.34" stroke="hsl(228.5, 77.2%, 51.5%)" stroke-width="1.5"></path><path d="M1400.07 100.34L1401.17 203.22" stroke="hsl(228.5, 77.2%, 51.5%)" stroke-width="1.5"></path><path d="M1401.17 203.22L1401.17 203.22" stroke="hsl(228.5, 77.2%, 51.5%)" stroke-width="1.5"></path><path d="M1442.92 559.74L1442.92 559.74" stroke="hsl(228.5, 77.2%, 51.5%)" stroke-width="1.5"></path><path d="M1442.92 559.74L1459.8 679.44" stroke="hsl(228.5, 77.2%, 51.5%)" stroke-width="1.5"></path><path d="M1442.92 559.74L1569.81 559.73" stroke="hsl(228.5, 77.2%, 51.5%)" stroke-width="1.5"></path><path d="M1459.8 679.44L1459.8 679.44" stroke="hsl(228.5, 77.2%, 51.5%)" stroke-width="1.5"></path><path d="M1459.8 679.44L1569.81 559.73" stroke="hsl(228.5, 77.2%, 51.5%)" stroke-width="1.5"></path><path d="M1596.21 230.74L1596.21 230.74" stroke="hsl(228.5, 77.2%, 51.5%)" stroke-width="1.5"></path><path d="M1569.81 559.73L1569.81 559.73" stroke="hsl(228.5, 77.2%, 51.5%)" stroke-width="1.5"></path><path d="M1569.81 559.73L1304.71 491.03" stroke="hsl(228.5, 77.2%, 51.5%)" stroke-width="1.5"></path><path d="M1569.81 559.73L1271.02 671.66" stroke="hsl(228.5, 77.2%, 51.5%)" stroke-width="1.5"></path><circle r="25" cx="404.67" cy="514.21" fill="url(#SvgjsRadialGradient1001)"></circle><circle r="25" cx="836.01" cy="652.99" fill="url(#SvgjsRadialGradient1001)"></circle><circle r="25" cx="960.22" cy="651.63" fill="url(#SvgjsRadialGradient1001)"></circle><circle r="25" cx="1271.02" cy="671.66" fill="url(#SvgjsRadialGradient1001)"></circle><circle r="25" cx="1552.31" cy="-45.28" fill="url(#SvgjsRadialGradient1001)"></circle><circle r="25" cx="1577.37" cy="95.56" fill="url(#SvgjsRadialGradient1001)"></circle><circle r="25" cx="1574.88" cy="399.3" fill="url(#SvgjsRadialGradient1001)"></circle><circle r="5" cx="-90.32" cy="504.02" fill="#8b9ad9"></circle><circle r="5" cx="111.51" cy="549.88" fill="#8b9ad9"></circle><circle r="5" cx="42.58" cy="709.94" fill="#8b9ad9"></circle><circle r="5" cx="251.64" cy="521.76" fill="#8b9ad9"></circle><circle r="5" cx="202.42" cy="705.22" fill="#8b9ad9"></circle><circle r="5" cx="405.66" cy="702.92" fill="#8b9ad9"></circle><circle r="5" cx="537.59" cy="405.45" fill="#8b9ad9"></circle><circle r="5" cx="506.59" cy="554.05" fill="#8b9ad9"></circle><circle r="5" cx="553.76" cy="697.3" fill="#8b9ad9"></circle><circle r="5" cx="696.41" cy="380.76" fill="#8b9ad9"></circle><circle r="5" cx="681.78" cy="524.72" fill="#8b9ad9"></circle><circle r="5" cx="678.78" cy="658.98" fill="#8b9ad9"></circle><circle r="5" cx="826.99" cy="393.93" fill="#8b9ad9"></circle><circle r="5" cx="804.28" cy="548.28" fill="#8b9ad9"></circle><circle r="5" cx="947.05" cy="255.41" fill="#8b9ad9"></circle><circle r="5" cx="993.57" cy="383.81" fill="#8b9ad9"></circle><circle r="5" cx="957.07" cy="489.77" fill="#8b9ad9"></circle><circle r="5" cx="1160.64" cy="-81.79" fill="#8b9ad9"></circle><circle r="5" cx="1112.81" cy="526.57" fill="#8b9ad9"></circle><circle r="5" cx="1155.83" cy="668.37" fill="#8b9ad9"></circle><circle r="5" cx="1237.77" cy="-80.57" fill="#8b9ad9"></circle><circle r="5" cx="1275.56" cy="96.67" fill="#8b9ad9"></circle><circle r="5" cx="1299" cy="188.48" fill="#8b9ad9"></circle><circle r="5" cx="1309.82" cy="364.16" fill="#8b9ad9"></circle><circle r="5" cx="1304.71" cy="491.03" fill="#8b9ad9"></circle><circle r="5" cx="1446.92" cy="-98.23" fill="#8b9ad9"></circle><circle r="5" cx="1400.07" cy="100.34" fill="#8b9ad9"></circle><circle r="5" cx="1401.17" cy="203.22" fill="#8b9ad9"></circle><circle r="5" cx="1442.92" cy="559.74" fill="#8b9ad9"></circle><circle r="5" cx="1459.8" cy="679.44" fill="#8b9ad9"></circle><circle r="5" cx="1596.21" cy="230.74" fill="#8b9ad9"></circle><circle r="5" cx="1569.81" cy="559.73" fill="#8b9ad9"></circle></g><defs><mask id="SvgjsMask1000"><rect width="1440" height="560" fill="#ffffff"></rect></mask><radialGradient id="SvgjsRadialGradient1001"><stop stop-color="#ffffff" offset="0.1"></stop><stop stop-color="#1735b3" offset="0.2"></stop><stop stop-color="rgba(23, 53, 179, 0)" offset="1"></stop></radialGradient></defs></svg>