<svg xmlns="http://www.w3.org/2000/svg" version="1.1" xmlns:xlink="http://www.w3.org/1999/xlink" xmlns:svgjs="http://svgjs.com/svgjs" width="1440" height="700" preserveAspectRatio="none" viewBox="0 0 1440 700"><g mask="url(&quot;#SvgjsMask1012&quot;)" fill="none"><rect width="1440" height="700" x="0" y="0" fill="#0e2a47"></rect><path d="M-51.49 522.47L-51.49 522.47" stroke="#132e65" stroke-width="1.5"></path><path d="M-51.49 522.47L-83.33 651.61" stroke="#132e65" stroke-width="1.5"></path><path d="M-51.49 522.47L90.64 538.88" stroke="#132e65" stroke-width="1.5"></path><path d="M-83.33 651.61L-83.33 651.61" stroke="#132e65" stroke-width="1.5"></path><path d="M-83.33 651.61L-72.88 831.91" stroke="#132e65" stroke-width="1.5"></path><path d="M-83.33 651.61L90.64 538.88" stroke="#132e65" stroke-width="1.5"></path><path d="M-83.33 651.61L73.82 848.63" stroke="#132e65" stroke-width="1.5"></path><path d="M-83.33 651.61L241.49 686.36" stroke="#132e65" stroke-width="1.5"></path><path d="M-72.88 831.91L-72.88 831.91" stroke="#132e65" stroke-width="1.5"></path><path d="M-72.88 831.91L73.82 848.63" stroke="#132e65" stroke-width="1.5"></path><path d="M-72.88 831.91L212.88 801.13" stroke="#132e65" stroke-width="1.5"></path><path d="M90.64 538.88L90.64 538.88" stroke="#132e65" stroke-width="1.5"></path><path d="M90.64 538.88L241.49 686.36" stroke="#132e65" stroke-width="1.5"></path><path d="M90.64 538.88L349.74 521.51" stroke="#132e65" stroke-width="1.5"></path><path d="M90.64 538.88L212.88 801.13" stroke="#132e65" stroke-width="1.5"></path><path d="M73.82 848.63L73.82 848.63" stroke="#132e65" stroke-width="1.5"></path><path d="M73.82 848.63L212.88 801.13" stroke="#132e65" stroke-width="1.5"></path><path d="M73.82 848.63L241.49 686.36" stroke="#132e65" stroke-width="1.5"></path><path d="M241.49 686.36L241.49 686.36" stroke="#132e65" stroke-width="1.5"></path><path d="M241.49 686.36L212.88 801.13" stroke="#132e65" stroke-width="1.5"></path><path d="M241.49 686.36L391.49 683.96" stroke="#132e65" stroke-width="1.5"></path><path d="M241.49 686.36L349.74 521.51" stroke="#132e65" stroke-width="1.5"></path><path d="M241.49 686.36L373.54 849.08" stroke="#132e65" stroke-width="1.5"></path><path d="M212.88 801.13L212.88 801.13" stroke="#132e65" stroke-width="1.5"></path><path d="M212.88 801.13L373.54 849.08" stroke="#132e65" stroke-width="1.5"></path><path d="M212.88 801.13L391.49 683.96" stroke="#132e65" stroke-width="1.5"></path><path d="M349.74 521.51L349.74 521.51" stroke="#132e65" stroke-width="1.5"></path><path d="M349.74 521.51L391.49 683.96" stroke="#132e65" stroke-width="1.5"></path><path d="M391.49 683.96L391.49 683.96" stroke="#132e65" stroke-width="1.5"></path><path d="M391.49 683.96L495.16 695.37" stroke="#132e65" stroke-width="1.5"></path><path d="M391.49 683.96L373.54 849.08" stroke="#132e65" stroke-width="1.5"></path><path d="M373.54 849.08L373.54 849.08" stroke="#132e65" stroke-width="1.5"></path><path d="M373.54 849.08L514.39 806.51" stroke="#132e65" stroke-width="1.5"></path><path d="M373.54 849.08L495.16 695.37" stroke="#132e65" stroke-width="1.5"></path><path d="M511.33 356.66L511.33 356.66" stroke="#132e65" stroke-width="1.5"></path><path d="M511.33 356.66L558.92 516.03" stroke="#132e65" stroke-width="1.5"></path><path d="M511.33 356.66L689.21 381.06" stroke="#132e65" stroke-width="1.5"></path><path d="M511.33 356.66L349.74 521.51" stroke="#132e65" stroke-width="1.5"></path><path d="M511.33 356.66L690.65 509.21" stroke="#132e65" stroke-width="1.5"></path><path d="M511.33 356.66L495.16 695.37" stroke="#132e65" stroke-width="1.5"></path><path d="M511.33 356.66L391.49 683.96" stroke="#132e65" stroke-width="1.5"></path><path d="M558.92 516.03L558.92 516.03" stroke="#132e65" stroke-width="1.5"></path><path d="M558.92 516.03L690.65 509.21" stroke="#132e65" stroke-width="1.5"></path><path d="M558.92 516.03L689.21 381.06" stroke="#132e65" stroke-width="1.5"></path><path d="M558.92 516.03L495.16 695.37" stroke="#132e65" stroke-width="1.5"></path><path d="M558.92 516.03L349.74 521.51" stroke="#132e65" stroke-width="1.5"></path><path d="M495.16 695.37L495.16 695.37" stroke="#132e65" stroke-width="1.5"></path><path d="M495.16 695.37L514.39 806.51" stroke="#132e65" stroke-width="1.5"></path><path d="M514.39 806.51L514.39 806.51" stroke="#132e65" stroke-width="1.5"></path><path d="M514.39 806.51L391.49 683.96" stroke="#132e65" stroke-width="1.5"></path><path d="M689.21 381.06L689.21 381.06" stroke="#132e65" stroke-width="1.5"></path><path d="M689.21 381.06L690.65 509.21" stroke="#132e65" stroke-width="1.5"></path><path d="M690.65 509.21L690.65 509.21" stroke="#132e65" stroke-width="1.5"></path><path d="M690.65 509.21L834.16 507.3" stroke="#132e65" stroke-width="1.5"></path><path d="M690.65 509.21L798.34 643.55" stroke="#132e65" stroke-width="1.5"></path><path d="M690.65 509.21L668.08 708.41" stroke="#132e65" stroke-width="1.5"></path><path d="M668.08 708.41L668.08 708.41" stroke="#132e65" stroke-width="1.5"></path><path d="M668.08 708.41L798.34 643.55" stroke="#132e65" stroke-width="1.5"></path><path d="M668.08 708.41L495.16 695.37" stroke="#132e65" stroke-width="1.5"></path><path d="M668.08 708.41L514.39 806.51" stroke="#132e65" stroke-width="1.5"></path><path d="M668.08 708.41L851.21 807.29" stroke="#132e65" stroke-width="1.5"></path><path d="M668.08 708.41L558.92 516.03" stroke="#132e65" stroke-width="1.5"></path><path d="M821.12 190.72L821.12 190.72" stroke="#132e65" stroke-width="1.5"></path><path d="M821.12 190.72L962.14 206.06" stroke="#132e65" stroke-width="1.5"></path><path d="M821.12 190.72L939.04 42.65" stroke="#132e65" stroke-width="1.5"></path><path d="M821.12 190.72L689.21 381.06" stroke="#132e65" stroke-width="1.5"></path><path d="M821.12 190.72L980.61 406.51" stroke="#132e65" stroke-width="1.5"></path><path d="M821.12 190.72L941.48 -71.26" stroke="#132e65" stroke-width="1.5"></path><path d="M834.16 507.3L834.16 507.3" stroke="#132e65" stroke-width="1.5"></path><path d="M834.16 507.3L798.34 643.55" stroke="#132e65" stroke-width="1.5"></path><path d="M834.16 507.3L1006.29 516.25" stroke="#132e65" stroke-width="1.5"></path><path d="M834.16 507.3L980.61 406.51" stroke="#132e65" stroke-width="1.5"></path><path d="M834.16 507.3L689.21 381.06" stroke="#132e65" stroke-width="1.5"></path><path d="M798.34 643.55L798.34 643.55" stroke="#132e65" stroke-width="1.5"></path><path d="M798.34 643.55L946.78 707.61" stroke="#132e65" stroke-width="1.5"></path><path d="M851.21 807.29L851.21 807.29" stroke="#132e65" stroke-width="1.5"></path><path d="M851.21 807.29L946.78 707.61" stroke="#132e65" stroke-width="1.5"></path><path d="M851.21 807.29L798.34 643.55" stroke="#132e65" stroke-width="1.5"></path><path d="M851.21 807.29L834.16 507.3" stroke="#132e65" stroke-width="1.5"></path><path d="M941.48 -71.26L941.48 -71.26" stroke="#132e65" stroke-width="1.5"></path><path d="M941.48 -71.26L939.04 42.65" stroke="#132e65" stroke-width="1.5"></path><path d="M941.48 -71.26L1155.48 -61.71" stroke="#132e65" stroke-width="1.5"></path><path d="M941.48 -71.26L1096.62 94.68" stroke="#132e65" stroke-width="1.5"></path><path d="M941.48 -71.26L962.14 206.06" stroke="#132e65" stroke-width="1.5"></path><path d="M939.04 42.65L939.04 42.65" stroke="#132e65" stroke-width="1.5"></path><path d="M939.04 42.65L962.14 206.06" stroke="#132e65" stroke-width="1.5"></path><path d="M962.14 206.06L962.14 206.06" stroke="#132e65" stroke-width="1.5"></path><path d="M962.14 206.06L1096.62 94.68" stroke="#132e65" stroke-width="1.5"></path><path d="M980.61 406.51L980.61 406.51" stroke="#132e65" stroke-width="1.5"></path><path d="M980.61 406.51L1006.29 516.25" stroke="#132e65" stroke-width="1.5"></path><path d="M980.61 406.51L1092.58 556.57" stroke="#132e65" stroke-width="1.5"></path><path d="M1006.29 516.25L1006.29 516.25" stroke="#132e65" stroke-width="1.5"></path><path d="M1006.29 516.25L1092.58 556.57" stroke="#132e65" stroke-width="1.5"></path><path d="M946.78 707.61L946.78 707.61" stroke="#132e65" stroke-width="1.5"></path><path d="M946.78 707.61L1130.59 669.14" stroke="#132e65" stroke-width="1.5"></path><path d="M1155.48 -61.71L1155.48 -61.71" stroke="#132e65" stroke-width="1.5"></path><path d="M1155.48 -61.71L1312.4 -96.65" stroke="#132e65" stroke-width="1.5"></path><path d="M1155.48 -61.71L1096.62 94.68" stroke="#132e65" stroke-width="1.5"></path><path d="M1155.48 -61.71L1270.4 105.54" stroke="#132e65" stroke-width="1.5"></path><path d="M1096.62 94.68L1096.62 94.68" stroke="#132e65" stroke-width="1.5"></path><path d="M1096.62 94.68L1161.89 223.95" stroke="#132e65" stroke-width="1.5"></path><path d="M1096.62 94.68L939.04 42.65" stroke="#132e65" stroke-width="1.5"></path><path d="M1096.62 94.68L1270.4 105.54" stroke="#132e65" stroke-width="1.5"></path><path d="M1161.89 223.95L1161.89 223.95" stroke="#132e65" stroke-width="1.5"></path><path d="M1161.89 223.95L1257.21 208.13" stroke="#132e65" stroke-width="1.5"></path><path d="M1161.89 223.95L1270.4 105.54" stroke="#132e65" stroke-width="1.5"></path><path d="M1092.58 556.57L1092.58 556.57" stroke="#132e65" stroke-width="1.5"></path><path d="M1092.58 556.57L1130.59 669.14" stroke="#132e65" stroke-width="1.5"></path><path d="M1092.58 556.57L1252.96 497.89" stroke="#132e65" stroke-width="1.5"></path><path d="M1130.59 669.14L1130.59 669.14" stroke="#132e65" stroke-width="1.5"></path><path d="M1130.59 669.14L1304.37 655.64" stroke="#132e65" stroke-width="1.5"></path><path d="M1130.59 669.14L1148.56 859.1" stroke="#132e65" stroke-width="1.5"></path><path d="M1130.59 669.14L1006.29 516.25" stroke="#132e65" stroke-width="1.5"></path><path d="M1130.59 669.14L1237.91 834.9" stroke="#132e65" stroke-width="1.5"></path><path d="M1148.56 859.1L1148.56 859.1" stroke="#132e65" stroke-width="1.5"></path><path d="M1148.56 859.1L1237.91 834.9" stroke="#132e65" stroke-width="1.5"></path><path d="M1148.56 859.1L946.78 707.61" stroke="#132e65" stroke-width="1.5"></path><path d="M1148.56 859.1L1304.37 655.64" stroke="#132e65" stroke-width="1.5"></path><path d="M1312.4 -96.65L1312.4 -96.65" stroke="#132e65" stroke-width="1.5"></path><path d="M1312.4 -96.65L1388.02 -69.03" stroke="#132e65" stroke-width="1.5"></path><path d="M1312.4 -96.65L1270.4 105.54" stroke="#132e65" stroke-width="1.5"></path><path d="M1270.4 105.54L1270.4 105.54" stroke="#132e65" stroke-width="1.5"></path><path d="M1270.4 105.54L1257.21 208.13" stroke="#132e65" stroke-width="1.5"></path><path d="M1270.4 105.54L1394.53 102.99" stroke="#132e65" stroke-width="1.5"></path><path d="M1257.21 208.13L1257.21 208.13" stroke="#132e65" stroke-width="1.5"></path><path d="M1257.21 208.13L1394.53 102.99" stroke="#132e65" stroke-width="1.5"></path><path d="M1257.21 208.13L1442.87 241.04" stroke="#132e65" stroke-width="1.5"></path><path d="M1257.21 208.13L1096.62 94.68" stroke="#132e65" stroke-width="1.5"></path><path d="M1279.52 408.88L1279.52 408.88" stroke="#132e65" stroke-width="1.5"></path><path d="M1279.52 408.88L1252.96 497.89" stroke="#132e65" stroke-width="1.5"></path><path d="M1279.52 408.88L1437.68 346.96" stroke="#132e65" stroke-width="1.5"></path><path d="M1279.52 408.88L1442.27 510.5" stroke="#132e65" stroke-width="1.5"></path><path d="M1252.96 497.89L1252.96 497.89" stroke="#132e65" stroke-width="1.5"></path><path d="M1252.96 497.89L1304.37 655.64" stroke="#132e65" stroke-width="1.5"></path><path d="M1252.96 497.89L1442.27 510.5" stroke="#132e65" stroke-width="1.5"></path><path d="M1252.96 497.89L1130.59 669.14" stroke="#132e65" stroke-width="1.5"></path><path d="M1252.96 497.89L1437.68 346.96" stroke="#132e65" stroke-width="1.5"></path><path d="M1304.37 655.64L1304.37 655.64" stroke="#132e65" stroke-width="1.5"></path><path d="M1304.37 655.64L1442.26 703.88" stroke="#132e65" stroke-width="1.5"></path><path d="M1304.37 655.64L1237.91 834.9" stroke="#132e65" stroke-width="1.5"></path><path d="M1237.91 834.9L1237.91 834.9" stroke="#132e65" stroke-width="1.5"></path><path d="M1237.91 834.9L1455.26 859.24" stroke="#132e65" stroke-width="1.5"></path><path d="M1388.02 -69.03L1388.02 -69.03" stroke="#132e65" stroke-width="1.5"></path><path d="M1388.02 -69.03L1551.35 -83.62" stroke="#132e65" stroke-width="1.5"></path><path d="M1388.02 -69.03L1394.53 102.99" stroke="#132e65" stroke-width="1.5"></path><path d="M1388.02 -69.03L1270.4 105.54" stroke="#132e65" stroke-width="1.5"></path><path d="M1394.53 102.99L1394.53 102.99" stroke="#132e65" stroke-width="1.5"></path><path d="M1394.53 102.99L1442.87 241.04" stroke="#132e65" stroke-width="1.5"></path><path d="M1442.87 241.04L1442.87 241.04" stroke="#132e65" stroke-width="1.5"></path><path d="M1442.87 241.04L1437.68 346.96" stroke="#132e65" stroke-width="1.5"></path><path d="M1442.87 241.04L1560.08 248.43" stroke="#132e65" stroke-width="1.5"></path><path d="M1437.68 346.96L1437.68 346.96" stroke="#132e65" stroke-width="1.5"></path><path d="M1437.68 346.96L1553.14 400.86" stroke="#132e65" stroke-width="1.5"></path><path d="M1437.68 346.96L1560.08 248.43" stroke="#132e65" stroke-width="1.5"></path><path d="M1437.68 346.96L1442.27 510.5" stroke="#132e65" stroke-width="1.5"></path><path d="M1442.27 510.5L1442.27 510.5" stroke="#132e65" stroke-width="1.5"></path><path d="M1442.27 510.5L1553.14 400.86" stroke="#132e65" stroke-width="1.5"></path><path d="M1442.27 510.5L1599.89 546.2" stroke="#132e65" stroke-width="1.5"></path><path d="M1442.26 703.88L1442.26 703.88" stroke="#132e65" stroke-width="1.5"></path><path d="M1442.26 703.88L1543.36 691.08" stroke="#132e65" stroke-width="1.5"></path><path d="M1442.26 703.88L1455.26 859.24" stroke="#132e65" stroke-width="1.5"></path><path d="M1442.26 703.88L1442.27 510.5" stroke="#132e65" stroke-width="1.5"></path><path d="M1455.26 859.24L1455.26 859.24" stroke="#132e65" stroke-width="1.5"></path><path d="M1455.26 859.24L1603.88 852.3" stroke="#132e65" stroke-width="1.5"></path><path d="M1455.26 859.24L1543.36 691.08" stroke="#132e65" stroke-width="1.5"></path><path d="M1455.26 859.24L1304.37 655.64" stroke="#132e65" stroke-width="1.5"></path><path d="M1455.26 859.24L1148.56 859.1" stroke="#132e65" stroke-width="1.5"></path><path d="M1551.35 -83.62L1551.35 -83.62" stroke="#132e65" stroke-width="1.5"></path><path d="M1551.35 -83.62L1574.68 65.41" stroke="#132e65" stroke-width="1.5"></path><path d="M1551.35 -83.62L1312.4 -96.65" stroke="#132e65" stroke-width="1.5"></path><path d="M1551.35 -83.62L1394.53 102.99" stroke="#132e65" stroke-width="1.5"></path><path d="M1551.35 -83.62L1560.08 248.43" stroke="#132e65" stroke-width="1.5"></path><path d="M1574.68 65.41L1574.68 65.41" stroke="#132e65" stroke-width="1.5"></path><path d="M1574.68 65.41L1560.08 248.43" stroke="#132e65" stroke-width="1.5"></path><path d="M1574.68 65.41L1394.53 102.99" stroke="#132e65" stroke-width="1.5"></path><path d="M1574.68 65.41L1442.87 241.04" stroke="#132e65" stroke-width="1.5"></path><path d="M1560.08 248.43L1560.08 248.43" stroke="#132e65" stroke-width="1.5"></path><path d="M1560.08 248.43L1553.14 400.86" stroke="#132e65" stroke-width="1.5"></path><path d="M1553.14 400.86L1553.14 400.86" stroke="#132e65" stroke-width="1.5"></path><path d="M1553.14 400.86L1599.89 546.2" stroke="#132e65" stroke-width="1.5"></path><path d="M1553.14 400.86L1442.87 241.04" stroke="#132e65" stroke-width="1.5"></path><path d="M1599.89 546.2L1599.89 546.2" stroke="#132e65" stroke-width="1.5"></path><path d="M1599.89 546.2L1543.36 691.08" stroke="#132e65" stroke-width="1.5"></path><path d="M1599.89 546.2L1442.26 703.88" stroke="#132e65" stroke-width="1.5"></path><path d="M1599.89 546.2L1437.68 346.96" stroke="#132e65" stroke-width="1.5"></path><path d="M1599.89 546.2L1560.08 248.43" stroke="#132e65" stroke-width="1.5"></path><path d="M1543.36 691.08L1543.36 691.08" stroke="#132e65" stroke-width="1.5"></path><path d="M1543.36 691.08L1603.88 852.3" stroke="#132e65" stroke-width="1.5"></path><path d="M1603.88 852.3L1603.88 852.3" stroke="#132e65" stroke-width="1.5"></path><path d="M1603.88 852.3L1442.26 703.88" stroke="#132e65" stroke-width="1.5"></path><circle r="5" cx="-51.49" cy="522.47" fill="#132e65"></circle><circle r="5" cx="-83.33" cy="651.61" fill="#132e65"></circle><circle r="5" cx="-72.88" cy="831.91" fill="#132e65"></circle><circle r="5" cx="90.64" cy="538.88" fill="#132e65"></circle><circle r="5" cx="73.82" cy="848.63" fill="#132e65"></circle><circle r="5" cx="241.49" cy="686.36" fill="#132e65"></circle><circle r="5" cx="212.88" cy="801.13" fill="#132e65"></circle><circle r="5" cx="349.74" cy="521.51" fill="#132e65"></circle><circle r="5" cx="391.49" cy="683.96" fill="#132e65"></circle><circle r="5" cx="373.54" cy="849.08" fill="#132e65"></circle><circle r="5" cx="511.33" cy="356.66" fill="#132e65"></circle><circle r="5" cx="558.92" cy="516.03" fill="#132e65"></circle><circle r="5" cx="495.16" cy="695.37" fill="#132e65"></circle><circle r="5" cx="514.39" cy="806.51" fill="#132e65"></circle><circle r="5" cx="689.21" cy="381.06" fill="#132e65"></circle><circle r="5" cx="690.65" cy="509.21" fill="#132e65"></circle><circle r="5" cx="668.08" cy="708.41" fill="#132e65"></circle><circle r="5" cx="821.12" cy="190.72" fill="#132e65"></circle><circle r="5" cx="834.16" cy="507.3" fill="#132e65"></circle><circle r="5" cx="798.34" cy="643.55" fill="#132e65"></circle><circle r="5" cx="851.21" cy="807.29" fill="#132e65"></circle><circle r="5" cx="941.48" cy="-71.26" fill="#132e65"></circle><circle r="5" cx="939.04" cy="42.65" fill="#132e65"></circle><circle r="5" cx="962.14" cy="206.06" fill="#132e65"></circle><circle r="5" cx="980.61" cy="406.51" fill="#132e65"></circle><circle r="5" cx="1006.29" cy="516.25" fill="#132e65"></circle><circle r="5" cx="946.78" cy="707.61" fill="#132e65"></circle><circle r="5" cx="1155.48" cy="-61.71" fill="#132e65"></circle><circle r="5" cx="1096.62" cy="94.68" fill="#132e65"></circle><circle r="5" cx="1161.89" cy="223.95" fill="#132e65"></circle><circle r="5" cx="1092.58" cy="556.57" fill="#132e65"></circle><circle r="5" cx="1130.59" cy="669.14" fill="#132e65"></circle><circle r="5" cx="1148.56" cy="859.1" fill="#132e65"></circle><circle r="5" cx="1312.4" cy="-96.65" fill="#132e65"></circle><circle r="5" cx="1270.4" cy="105.54" fill="#132e65"></circle><circle r="5" cx="1257.21" cy="208.13" fill="#132e65"></circle><circle r="5" cx="1279.52" cy="408.88" fill="#132e65"></circle><circle r="5" cx="1252.96" cy="497.89" fill="#132e65"></circle><circle r="5" cx="1304.37" cy="655.64" fill="#132e65"></circle><circle r="5" cx="1237.91" cy="834.9" fill="#132e65"></circle><circle r="5" cx="1388.02" cy="-69.03" fill="#132e65"></circle><circle r="5" cx="1394.53" cy="102.99" fill="#132e65"></circle><circle r="5" cx="1442.87" cy="241.04" fill="#132e65"></circle><circle r="5" cx="1437.68" cy="346.96" fill="#132e65"></circle><circle r="5" cx="1442.27" cy="510.5" fill="#132e65"></circle><circle r="5" cx="1442.26" cy="703.88" fill="#132e65"></circle><circle r="5" cx="1455.26" cy="859.24" fill="#132e65"></circle><circle r="5" cx="1551.35" cy="-83.62" fill="#132e65"></circle><circle r="5" cx="1574.68" cy="65.41" fill="#132e65"></circle><circle r="5" cx="1560.08" cy="248.43" fill="#132e65"></circle><circle r="5" cx="1553.14" cy="400.86" fill="#132e65"></circle><circle r="5" cx="1599.89" cy="546.2" fill="#132e65"></circle><circle r="5" cx="1543.36" cy="691.08" fill="#132e65"></circle><circle r="5" cx="1603.88" cy="852.3" fill="#132e65"></circle><path d="M191.8 646.11L191.8 646.11" stroke="hsl(228.5, 77.2%, 51.5%)" stroke-width="1.5"></path><path d="M191.8 646.11L87.1 701.76" stroke="hsl(228.5, 77.2%, 51.5%)" stroke-width="1.5"></path><path d="M191.8 646.11L355.07 647.81" stroke="hsl(228.5, 77.2%, 51.5%)" stroke-width="1.5"></path><path d="M845.86 531.89L845.86 531.89" stroke="hsl(228.5, 77.2%, 51.5%)" stroke-width="1.5"></path><path d="M845.86 531.89L710.08 506.32" stroke="hsl(228.5, 77.2%, 51.5%)" stroke-width="1.5"></path><path d="M845.86 531.89L806.85 667.51" stroke="hsl(228.5, 77.2%, 51.5%)" stroke-width="1.5"></path><path d="M999.04 812.3L999.04 812.3" stroke="hsl(228.5, 77.2%, 51.5%)" stroke-width="1.5"></path><path d="M999.04 812.3L1100.73 815.99" stroke="hsl(228.5, 77.2%, 51.5%)" stroke-width="1.5"></path><path d="M999.04 812.3L1009.13 705.59" stroke="hsl(228.5, 77.2%, 51.5%)" stroke-width="1.5"></path><path d="M999.04 812.3L802.54 801.6" stroke="hsl(228.5, 77.2%, 51.5%)" stroke-width="1.5"></path><path d="M999.04 812.3L1116.56 653.24" stroke="hsl(228.5, 77.2%, 51.5%)" stroke-width="1.5"></path><path d="M999.04 812.3L806.85 667.51" stroke="hsl(228.5, 77.2%, 51.5%)" stroke-width="1.5"></path><path d="M999.04 812.3L1282.19 847.58" stroke="hsl(228.5, 77.2%, 51.5%)" stroke-width="1.5"></path><path d="M1154.19 235.05L1154.19 235.05" stroke="hsl(228.5, 77.2%, 51.5%)" stroke-width="1.5"></path><path d="M1154.19 235.05L1249.32 237.96" stroke="hsl(228.5, 77.2%, 51.5%)" stroke-width="1.5"></path><path d="M1154.19 235.05L1123.6 364.38" stroke="hsl(228.5, 77.2%, 51.5%)" stroke-width="1.5"></path><path d="M1154.19 235.05L1010.23 363.87" stroke="hsl(228.5, 77.2%, 51.5%)" stroke-width="1.5"></path><path d="M1154.19 235.05L1262.32 395.86" stroke="hsl(228.5, 77.2%, 51.5%)" stroke-width="1.5"></path><path d="M1154.19 235.05L1266.5 43.19" stroke="hsl(228.5, 77.2%, 51.5%)" stroke-width="1.5"></path><path d="M1273.32 -82.55L1273.32 -82.55" stroke="hsl(228.5, 77.2%, 51.5%)" stroke-width="1.5"></path><path d="M1273.32 -82.55L1152.51 -54.1" stroke="hsl(228.5, 77.2%, 51.5%)" stroke-width="1.5"></path><path d="M1273.32 -82.55L1266.5 43.19" stroke="hsl(228.5, 77.2%, 51.5%)" stroke-width="1.5"></path><path d="M1273.32 -82.55L1419.87 -47.48" stroke="hsl(228.5, 77.2%, 51.5%)" stroke-width="1.5"></path><path d="M1450.11 842.03L1450.11 842.03" stroke="hsl(228.5, 77.2%, 51.5%)" stroke-width="1.5"></path><path d="M1450.11 842.03L1597.83 841.14" stroke="hsl(228.5, 77.2%, 51.5%)" stroke-width="1.5"></path><path d="M1450.11 842.03L1282.19 847.58" stroke="hsl(228.5, 77.2%, 51.5%)" stroke-width="1.5"></path><path d="M1450.11 842.03L1572.18 668.5" stroke="hsl(228.5, 77.2%, 51.5%)" stroke-width="1.5"></path><path d="M1587.74 -67.65L1587.74 -67.65" stroke="hsl(228.5, 77.2%, 51.5%)" stroke-width="1.5"></path><path d="M1587.74 -67.65L1587.59 74.53" stroke="hsl(228.5, 77.2%, 51.5%)" stroke-width="1.5"></path><path d="M1587.74 -67.65L1419.87 -47.48" stroke="hsl(228.5, 77.2%, 51.5%)" stroke-width="1.5"></path><path d="M1587.74 -67.65L1440.43 79.74" stroke="hsl(228.5, 77.2%, 51.5%)" stroke-width="1.5"></path><path d="M1587.74 -67.65L1273.32 -82.55" stroke="hsl(228.5, 77.2%, 51.5%)" stroke-width="1.5"></path><path d="M-76.92 642.17L-76.92 642.17" stroke="hsl(228.5, 77.2%, 51.5%)" stroke-width="1.5"></path><path d="M-76.92 642.17L-78.16 793.59" stroke="hsl(228.5, 77.2%, 51.5%)" stroke-width="1.5"></path><path d="M-76.92 642.17L87.1 701.76" stroke="hsl(228.5, 77.2%, 51.5%)" stroke-width="1.5"></path><path d="M-76.92 642.17L80.27 810.71" stroke="hsl(228.5, 77.2%, 51.5%)" stroke-width="1.5"></path><path d="M-78.16 793.59L-78.16 793.59" stroke="hsl(228.5, 77.2%, 51.5%)" stroke-width="1.5"></path><path d="M-78.16 793.59L80.27 810.71" stroke="hsl(228.5, 77.2%, 51.5%)" stroke-width="1.5"></path><path d="M-78.16 793.59L87.1 701.76" stroke="hsl(228.5, 77.2%, 51.5%)" stroke-width="1.5"></path><path d="M-78.16 793.59L191.8 646.11" stroke="hsl(228.5, 77.2%, 51.5%)" stroke-width="1.5"></path><path d="M-78.16 793.59L261.02 835.96" stroke="hsl(228.5, 77.2%, 51.5%)" stroke-width="1.5"></path><path d="M87.1 701.76L87.1 701.76" stroke="hsl(228.5, 77.2%, 51.5%)" stroke-width="1.5"></path><path d="M87.1 701.76L80.27 810.71" stroke="hsl(228.5, 77.2%, 51.5%)" stroke-width="1.5"></path><path d="M80.27 810.71L80.27 810.71" stroke="hsl(228.5, 77.2%, 51.5%)" stroke-width="1.5"></path><path d="M80.27 810.71L261.02 835.96" stroke="hsl(228.5, 77.2%, 51.5%)" stroke-width="1.5"></path><path d="M80.27 810.71L191.8 646.11" stroke="hsl(228.5, 77.2%, 51.5%)" stroke-width="1.5"></path><path d="M261.02 835.96L261.02 835.96" stroke="hsl(228.5, 77.2%, 51.5%)" stroke-width="1.5"></path><path d="M261.02 835.96L375.2 854.97" stroke="hsl(228.5, 77.2%, 51.5%)" stroke-width="1.5"></path><path d="M261.02 835.96L191.8 646.11" stroke="hsl(228.5, 77.2%, 51.5%)" stroke-width="1.5"></path><path d="M261.02 835.96L355.07 647.81" stroke="hsl(228.5, 77.2%, 51.5%)" stroke-width="1.5"></path><path d="M261.02 835.96L87.1 701.76" stroke="hsl(228.5, 77.2%, 51.5%)" stroke-width="1.5"></path><path d="M261.02 835.96L540.47 805.76" stroke="hsl(228.5, 77.2%, 51.5%)" stroke-width="1.5"></path><path d="M351 548.9L351 548.9" stroke="hsl(228.5, 77.2%, 51.5%)" stroke-width="1.5"></path><path d="M351 548.9L355.07 647.81" stroke="hsl(228.5, 77.2%, 51.5%)" stroke-width="1.5"></path><path d="M351 548.9L502.15 539.79" stroke="hsl(228.5, 77.2%, 51.5%)" stroke-width="1.5"></path><path d="M351 548.9L191.8 646.11" stroke="hsl(228.5, 77.2%, 51.5%)" stroke-width="1.5"></path><path d="M355.07 647.81L355.07 647.81" stroke="hsl(228.5, 77.2%, 51.5%)" stroke-width="1.5"></path><path d="M355.07 647.81L536.14 660.07" stroke="hsl(228.5, 77.2%, 51.5%)" stroke-width="1.5"></path><path d="M355.07 647.81L502.15 539.79" stroke="hsl(228.5, 77.2%, 51.5%)" stroke-width="1.5"></path><path d="M355.07 647.81L375.2 854.97" stroke="hsl(228.5, 77.2%, 51.5%)" stroke-width="1.5"></path><path d="M375.2 854.97L375.2 854.97" stroke="hsl(228.5, 77.2%, 51.5%)" stroke-width="1.5"></path><path d="M375.2 854.97L540.47 805.76" stroke="hsl(228.5, 77.2%, 51.5%)" stroke-width="1.5"></path><path d="M502.15 539.79L502.15 539.79" stroke="hsl(228.5, 77.2%, 51.5%)" stroke-width="1.5"></path><path d="M502.15 539.79L536.14 660.07" stroke="hsl(228.5, 77.2%, 51.5%)" stroke-width="1.5"></path><path d="M502.15 539.79L710.08 506.32" stroke="hsl(228.5, 77.2%, 51.5%)" stroke-width="1.5"></path><path d="M502.15 539.79L708.95 653.9" stroke="hsl(228.5, 77.2%, 51.5%)" stroke-width="1.5"></path><path d="M502.15 539.79L540.47 805.76" stroke="hsl(228.5, 77.2%, 51.5%)" stroke-width="1.5"></path><path d="M536.14 660.07L536.14 660.07" stroke="hsl(228.5, 77.2%, 51.5%)" stroke-width="1.5"></path><path d="M540.47 805.76L540.47 805.76" stroke="hsl(228.5, 77.2%, 51.5%)" stroke-width="1.5"></path><path d="M540.47 805.76L536.14 660.07" stroke="hsl(228.5, 77.2%, 51.5%)" stroke-width="1.5"></path><path d="M540.47 805.76L703.05 861.76" stroke="hsl(228.5, 77.2%, 51.5%)" stroke-width="1.5"></path><path d="M710.08 506.32L710.08 506.32" stroke="hsl(228.5, 77.2%, 51.5%)" stroke-width="1.5"></path><path d="M710.08 506.32L708.95 653.9" stroke="hsl(228.5, 77.2%, 51.5%)" stroke-width="1.5"></path><path d="M710.08 506.32L806.85 667.51" stroke="hsl(228.5, 77.2%, 51.5%)" stroke-width="1.5"></path><path d="M708.95 653.9L708.95 653.9" stroke="hsl(228.5, 77.2%, 51.5%)" stroke-width="1.5"></path><path d="M708.95 653.9L806.85 667.51" stroke="hsl(228.5, 77.2%, 51.5%)" stroke-width="1.5"></path><path d="M708.95 653.9L536.14 660.07" stroke="hsl(228.5, 77.2%, 51.5%)" stroke-width="1.5"></path><path d="M708.95 653.9L802.54 801.6" stroke="hsl(228.5, 77.2%, 51.5%)" stroke-width="1.5"></path><path d="M708.95 653.9L845.86 531.89" stroke="hsl(228.5, 77.2%, 51.5%)" stroke-width="1.5"></path><path d="M703.05 861.76L703.05 861.76" stroke="hsl(228.5, 77.2%, 51.5%)" stroke-width="1.5"></path><path d="M703.05 861.76L802.54 801.6" stroke="hsl(228.5, 77.2%, 51.5%)" stroke-width="1.5"></path><path d="M806.85 667.51L806.85 667.51" stroke="hsl(228.5, 77.2%, 51.5%)" stroke-width="1.5"></path><path d="M806.85 667.51L802.54 801.6" stroke="hsl(228.5, 77.2%, 51.5%)" stroke-width="1.5"></path><path d="M802.54 801.6L802.54 801.6" stroke="hsl(228.5, 77.2%, 51.5%)" stroke-width="1.5"></path><path d="M802.54 801.6L1009.13 705.59" stroke="hsl(228.5, 77.2%, 51.5%)" stroke-width="1.5"></path><path d="M802.54 801.6L540.47 805.76" stroke="hsl(228.5, 77.2%, 51.5%)" stroke-width="1.5"></path><path d="M1010.23 363.87L1010.23 363.87" stroke="hsl(228.5, 77.2%, 51.5%)" stroke-width="1.5"></path><path d="M1010.23 363.87L1123.6 364.38" stroke="hsl(228.5, 77.2%, 51.5%)" stroke-width="1.5"></path><path d="M1010.23 363.87L1008.55 503.02" stroke="hsl(228.5, 77.2%, 51.5%)" stroke-width="1.5"></path><path d="M1010.23 363.87L1123.74 549.29" stroke="hsl(228.5, 77.2%, 51.5%)" stroke-width="1.5"></path><path d="M1010.23 363.87L845.86 531.89" stroke="hsl(228.5, 77.2%, 51.5%)" stroke-width="1.5"></path><path d="M1010.23 363.87L1262.32 395.86" stroke="hsl(228.5, 77.2%, 51.5%)" stroke-width="1.5"></path><path d="M1008.55 503.02L1008.55 503.02" stroke="hsl(228.5, 77.2%, 51.5%)" stroke-width="1.5"></path><path d="M1008.55 503.02L1123.74 549.29" stroke="hsl(228.5, 77.2%, 51.5%)" stroke-width="1.5"></path><path d="M1008.55 503.02L845.86 531.89" stroke="hsl(228.5, 77.2%, 51.5%)" stroke-width="1.5"></path><path d="M1008.55 503.02L1123.6 364.38" stroke="hsl(228.5, 77.2%, 51.5%)" stroke-width="1.5"></path><path d="M1009.13 705.59L1009.13 705.59" stroke="hsl(228.5, 77.2%, 51.5%)" stroke-width="1.5"></path><path d="M1009.13 705.59L1116.56 653.24" stroke="hsl(228.5, 77.2%, 51.5%)" stroke-width="1.5"></path><path d="M1009.13 705.59L1100.73 815.99" stroke="hsl(228.5, 77.2%, 51.5%)" stroke-width="1.5"></path><path d="M1152.51 -54.1L1152.51 -54.1" stroke="hsl(228.5, 77.2%, 51.5%)" stroke-width="1.5"></path><path d="M1152.51 -54.1L1266.5 43.19" stroke="hsl(228.5, 77.2%, 51.5%)" stroke-width="1.5"></path><path d="M1152.51 -54.1L1419.87 -47.48" stroke="hsl(228.5, 77.2%, 51.5%)" stroke-width="1.5"></path><path d="M1152.51 -54.1L1154.19 235.05" stroke="hsl(228.5, 77.2%, 51.5%)" stroke-width="1.5"></path><path d="M1152.51 -54.1L1249.32 237.96" stroke="hsl(228.5, 77.2%, 51.5%)" stroke-width="1.5"></path><path d="M1123.6 364.38L1123.6 364.38" stroke="hsl(228.5, 77.2%, 51.5%)" stroke-width="1.5"></path><path d="M1123.6 364.38L1262.32 395.86" stroke="hsl(228.5, 77.2%, 51.5%)" stroke-width="1.5"></path><path d="M1123.6 364.38L1249.32 237.96" stroke="hsl(228.5, 77.2%, 51.5%)" stroke-width="1.5"></path><path d="M1123.74 549.29L1123.74 549.29" stroke="hsl(228.5, 77.2%, 51.5%)" stroke-width="1.5"></path><path d="M1123.74 549.29L1116.56 653.24" stroke="hsl(228.5, 77.2%, 51.5%)" stroke-width="1.5"></path><path d="M1123.74 549.29L1123.6 364.38" stroke="hsl(228.5, 77.2%, 51.5%)" stroke-width="1.5"></path><path d="M1123.74 549.29L1009.13 705.59" stroke="hsl(228.5, 77.2%, 51.5%)" stroke-width="1.5"></path><path d="M1123.74 549.29L1262.32 395.86" stroke="hsl(228.5, 77.2%, 51.5%)" stroke-width="1.5"></path><path d="M1116.56 653.24L1116.56 653.24" stroke="hsl(228.5, 77.2%, 51.5%)" stroke-width="1.5"></path><path d="M1116.56 653.24L1100.73 815.99" stroke="hsl(228.5, 77.2%, 51.5%)" stroke-width="1.5"></path><path d="M1116.56 653.24L1008.55 503.02" stroke="hsl(228.5, 77.2%, 51.5%)" stroke-width="1.5"></path><path d="M1116.56 653.24L1303.56 687.2" stroke="hsl(228.5, 77.2%, 51.5%)" stroke-width="1.5"></path><path d="M1100.73 815.99L1100.73 815.99" stroke="hsl(228.5, 77.2%, 51.5%)" stroke-width="1.5"></path><path d="M1266.5 43.19L1266.5 43.19" stroke="hsl(228.5, 77.2%, 51.5%)" stroke-width="1.5"></path><path d="M1266.5 43.19L1440.43 79.74" stroke="hsl(228.5, 77.2%, 51.5%)" stroke-width="1.5"></path><path d="M1266.5 43.19L1419.87 -47.48" stroke="hsl(228.5, 77.2%, 51.5%)" stroke-width="1.5"></path><path d="M1249.32 237.96L1249.32 237.96" stroke="hsl(228.5, 77.2%, 51.5%)" stroke-width="1.5"></path><path d="M1249.32 237.96L1403.03 225.35" stroke="hsl(228.5, 77.2%, 51.5%)" stroke-width="1.5"></path><path d="M1249.32 237.96L1262.32 395.86" stroke="hsl(228.5, 77.2%, 51.5%)" stroke-width="1.5"></path><path d="M1262.32 395.86L1262.32 395.86" stroke="hsl(228.5, 77.2%, 51.5%)" stroke-width="1.5"></path><path d="M1262.32 395.86L1399.16 379.51" stroke="hsl(228.5, 77.2%, 51.5%)" stroke-width="1.5"></path><path d="M1262.32 395.86L1413.28 499.32" stroke="hsl(228.5, 77.2%, 51.5%)" stroke-width="1.5"></path><path d="M1303.56 687.2L1303.56 687.2" stroke="hsl(228.5, 77.2%, 51.5%)" stroke-width="1.5"></path><path d="M1303.56 687.2L1282.19 847.58" stroke="hsl(228.5, 77.2%, 51.5%)" stroke-width="1.5"></path><path d="M1282.19 847.58L1282.19 847.58" stroke="hsl(228.5, 77.2%, 51.5%)" stroke-width="1.5"></path><path d="M1282.19 847.58L1100.73 815.99" stroke="hsl(228.5, 77.2%, 51.5%)" stroke-width="1.5"></path><path d="M1282.19 847.58L1116.56 653.24" stroke="hsl(228.5, 77.2%, 51.5%)" stroke-width="1.5"></path><path d="M1419.87 -47.48L1419.87 -47.48" stroke="hsl(228.5, 77.2%, 51.5%)" stroke-width="1.5"></path><path d="M1419.87 -47.48L1440.43 79.74" stroke="hsl(228.5, 77.2%, 51.5%)" stroke-width="1.5"></path><path d="M1440.43 79.74L1440.43 79.74" stroke="hsl(228.5, 77.2%, 51.5%)" stroke-width="1.5"></path><path d="M1440.43 79.74L1587.59 74.53" stroke="hsl(228.5, 77.2%, 51.5%)" stroke-width="1.5"></path><path d="M1440.43 79.74L1403.03 225.35" stroke="hsl(228.5, 77.2%, 51.5%)" stroke-width="1.5"></path><path d="M1403.03 225.35L1403.03 225.35" stroke="hsl(228.5, 77.2%, 51.5%)" stroke-width="1.5"></path><path d="M1403.03 225.35L1545.22 253.3" stroke="hsl(228.5, 77.2%, 51.5%)" stroke-width="1.5"></path><path d="M1399.16 379.51L1399.16 379.51" stroke="hsl(228.5, 77.2%, 51.5%)" stroke-width="1.5"></path><path d="M1399.16 379.51L1413.28 499.32" stroke="hsl(228.5, 77.2%, 51.5%)" stroke-width="1.5"></path><path d="M1413.28 499.32L1413.28 499.32" stroke="hsl(228.5, 77.2%, 51.5%)" stroke-width="1.5"></path><path d="M1413.28 499.32L1541.35 527.16" stroke="hsl(228.5, 77.2%, 51.5%)" stroke-width="1.5"></path><path d="M1413.28 499.32L1303.56 687.2" stroke="hsl(228.5, 77.2%, 51.5%)" stroke-width="1.5"></path><path d="M1413.28 499.32L1599.11 373.21" stroke="hsl(228.5, 77.2%, 51.5%)" stroke-width="1.5"></path><path d="M1587.59 74.53L1587.59 74.53" stroke="hsl(228.5, 77.2%, 51.5%)" stroke-width="1.5"></path><path d="M1587.59 74.53L1545.22 253.3" stroke="hsl(228.5, 77.2%, 51.5%)" stroke-width="1.5"></path><path d="M1587.59 74.53L1419.87 -47.48" stroke="hsl(228.5, 77.2%, 51.5%)" stroke-width="1.5"></path><path d="M1587.59 74.53L1403.03 225.35" stroke="hsl(228.5, 77.2%, 51.5%)" stroke-width="1.5"></path><path d="M1545.22 253.3L1545.22 253.3" stroke="hsl(228.5, 77.2%, 51.5%)" stroke-width="1.5"></path><path d="M1545.22 253.3L1599.11 373.21" stroke="hsl(228.5, 77.2%, 51.5%)" stroke-width="1.5"></path><path d="M1545.22 253.3L1399.16 379.51" stroke="hsl(228.5, 77.2%, 51.5%)" stroke-width="1.5"></path><path d="M1545.22 253.3L1440.43 79.74" stroke="hsl(228.5, 77.2%, 51.5%)" stroke-width="1.5"></path><path d="M1599.11 373.21L1599.11 373.21" stroke="hsl(228.5, 77.2%, 51.5%)" stroke-width="1.5"></path><path d="M1599.11 373.21L1541.35 527.16" stroke="hsl(228.5, 77.2%, 51.5%)" stroke-width="1.5"></path><path d="M1599.11 373.21L1399.16 379.51" stroke="hsl(228.5, 77.2%, 51.5%)" stroke-width="1.5"></path><path d="M1541.35 527.16L1541.35 527.16" stroke="hsl(228.5, 77.2%, 51.5%)" stroke-width="1.5"></path><path d="M1541.35 527.16L1572.18 668.5" stroke="hsl(228.5, 77.2%, 51.5%)" stroke-width="1.5"></path><path d="M1541.35 527.16L1399.16 379.51" stroke="hsl(228.5, 77.2%, 51.5%)" stroke-width="1.5"></path><path d="M1572.18 668.5L1572.18 668.5" stroke="hsl(228.5, 77.2%, 51.5%)" stroke-width="1.5"></path><path d="M1572.18 668.5L1597.83 841.14" stroke="hsl(228.5, 77.2%, 51.5%)" stroke-width="1.5"></path><path d="M1597.83 841.14L1597.83 841.14" stroke="hsl(228.5, 77.2%, 51.5%)" stroke-width="1.5"></path><path d="M1597.83 841.14L1282.19 847.58" stroke="hsl(228.5, 77.2%, 51.5%)" stroke-width="1.5"></path><path d="M1597.83 841.14L1541.35 527.16" stroke="hsl(228.5, 77.2%, 51.5%)" stroke-width="1.5"></path><path d="M1597.83 841.14L1303.56 687.2" stroke="hsl(228.5, 77.2%, 51.5%)" stroke-width="1.5"></path><path d="M1597.83 841.14L1413.28 499.32" stroke="hsl(228.5, 77.2%, 51.5%)" stroke-width="1.5"></path><circle r="25" cx="191.8" cy="646.11" fill="url(#SvgjsRadialGradient1013)"></circle><circle r="25" cx="845.86" cy="531.89" fill="url(#SvgjsRadialGradient1013)"></circle><circle r="25" cx="999.04" cy="812.3" fill="url(#SvgjsRadialGradient1013)"></circle><circle r="25" cx="1154.19" cy="235.05" fill="url(#SvgjsRadialGradient1013)"></circle><circle r="25" cx="1273.32" cy="-82.55" fill="url(#SvgjsRadialGradient1013)"></circle><circle r="25" cx="1450.11" cy="842.03" fill="url(#SvgjsRadialGradient1013)"></circle><circle r="25" cx="1587.74" cy="-67.65" fill="url(#SvgjsRadialGradient1013)"></circle><circle r="5" cx="-76.92" cy="642.17" fill="#8b9ad9"></circle><circle r="5" cx="-78.16" cy="793.59" fill="#8b9ad9"></circle><circle r="5" cx="87.1" cy="701.76" fill="#8b9ad9"></circle><circle r="5" cx="80.27" cy="810.71" fill="#8b9ad9"></circle><circle r="5" cx="261.02" cy="835.96" fill="#8b9ad9"></circle><circle r="5" cx="351" cy="548.9" fill="#8b9ad9"></circle><circle r="5" cx="355.07" cy="647.81" fill="#8b9ad9"></circle><circle r="5" cx="375.2" cy="854.97" fill="#8b9ad9"></circle><circle r="5" cx="502.15" cy="539.79" fill="#8b9ad9"></circle><circle r="5" cx="536.14" cy="660.07" fill="#8b9ad9"></circle><circle r="5" cx="540.47" cy="805.76" fill="#8b9ad9"></circle><circle r="5" cx="710.08" cy="506.32" fill="#8b9ad9"></circle><circle r="5" cx="708.95" cy="653.9" fill="#8b9ad9"></circle><circle r="5" cx="703.05" cy="861.76" fill="#8b9ad9"></circle><circle r="5" cx="806.85" cy="667.51" fill="#8b9ad9"></circle><circle r="5" cx="802.54" cy="801.6" fill="#8b9ad9"></circle><circle r="5" cx="1010.23" cy="363.87" fill="#8b9ad9"></circle><circle r="5" cx="1008.55" cy="503.02" fill="#8b9ad9"></circle><circle r="5" cx="1009.13" cy="705.59" fill="#8b9ad9"></circle><circle r="5" cx="1152.51" cy="-54.1" fill="#8b9ad9"></circle><circle r="5" cx="1123.6" cy="364.38" fill="#8b9ad9"></circle><circle r="5" cx="1123.74" cy="549.29" fill="#8b9ad9"></circle><circle r="5" cx="1116.56" cy="653.24" fill="#8b9ad9"></circle><circle r="5" cx="1100.73" cy="815.99" fill="#8b9ad9"></circle><circle r="5" cx="1266.5" cy="43.19" fill="#8b9ad9"></circle><circle r="5" cx="1249.32" cy="237.96" fill="#8b9ad9"></circle><circle r="5" cx="1262.32" cy="395.86" fill="#8b9ad9"></circle><circle r="5" cx="1303.56" cy="687.2" fill="#8b9ad9"></circle><circle r="5" cx="1282.19" cy="847.58" fill="#8b9ad9"></circle><circle r="5" cx="1419.87" cy="-47.48" fill="#8b9ad9"></circle><circle r="5" cx="1440.43" cy="79.74" fill="#8b9ad9"></circle><circle r="5" cx="1403.03" cy="225.35" fill="#8b9ad9"></circle><circle r="5" cx="1399.16" cy="379.51" fill="#8b9ad9"></circle><circle r="5" cx="1413.28" cy="499.32" fill="#8b9ad9"></circle><circle r="5" cx="1587.59" cy="74.53" fill="#8b9ad9"></circle><circle r="5" cx="1545.22" cy="253.3" fill="#8b9ad9"></circle><circle r="5" cx="1599.11" cy="373.21" fill="#8b9ad9"></circle><circle r="5" cx="1541.35" cy="527.16" fill="#8b9ad9"></circle><circle r="5" cx="1572.18" cy="668.5" fill="#8b9ad9"></circle><circle r="5" cx="1597.83" cy="841.14" fill="#8b9ad9"></circle></g><defs><mask id="SvgjsMask1012"><rect width="1440" height="700" fill="#ffffff"></rect></mask><radialGradient id="SvgjsRadialGradient1013"><stop stop-color="#ffffff" offset="0.1"></stop><stop stop-color="#1735b3" offset="0.2"></stop><stop stop-color="rgba(23, 53, 179, 0)" offset="1"></stop></radialGradient></defs></svg>