<?xml version="1.0" encoding="UTF-8"?>
<svg xmlns="http://www.w3.org/2000/svg" xmlns:xlink="http://www.w3.org/1999/xlink" viewBox="0 0 150 150" width="150px" height="150px">
<g id="surface142178212">
<path style=" stroke:none;fill-rule:nonzero;fill:rgb(94.509804%,76.862746%,5.882353%);fill-opacity:1;" d="M 135.820312 6.976562 C 135.253906 6.355469 134.449219 6 133.609375 6 L 16.390625 6 C 15.550781 6 14.746094 6.355469 14.179688 6.976562 C 13.609375 7.597656 13.328125 8.429688 13.402344 9.265625 L 23.964844 127.546875 C 24.074219 128.785156 24.9375 129.824219 26.128906 130.167969 L 74.160156 143.886719 C 74.425781 143.960938 74.707031 144 74.980469 144 C 75.257812 144 75.535156 143.960938 75.804688 143.886719 L 123.875 130.167969 C 125.070312 129.824219 125.929688 128.785156 126.042969 127.546875 L 136.597656 9.265625 C 136.671875 8.429688 136.390625 7.597656 135.820312 6.976562 Z M 36 87.011719 L 57 92.839844 L 57 33 L 69 33 L 69 111 L 36 101.847656 Z M 114.160156 66 L 111 102.75 L 81 111 L 81 97.195312 L 101.25 91.632812 L 102 80.382812 L 81 84 L 81 33 L 117 33 L 115.964844 45 L 93 45 L 93 69 Z M 114.160156 66 "/>
</g>
</svg>
